SplineFontDB: 3.0
FontName: MFI-Serreria-Extravagante
FullName: MFI Serreria Extravagante
FamilyName: MFI Serreria Extravagante
Weight: Medium
Copyright: 2012 (c) The participants of the "Stone to Spaceship" workshop at Medialab Prado in July 2012. \n\nSee the FONTLOG for the full author list and visit http://manufacturaindependente.com/stonespaceship/ for additional information.
FontLog: "2012/07/19: First release by the authors (Javier Gonzalez, Eduardo Merch+AOEA-n, Guillermo Afonso, Beatriz Garc+AO0A-a, Alberto Hern+AOEA-ndez, Marta Calabria, Txus Tejado, Beatriz Fern+AOEA-ndez, Marcos Prack, Pablo G+AOEA-mez, Miriam Castro, C+AOkA-sar A. Fern+AOEA-ndez, Gabriel Lucas, Alfredo Calosci, Rafael Parrilla, Ana Isabel Carvalho, Ricardo Lafuente)+AAoACgAA-2012/07/20: Missing accents and misc. characters added by Manufactura Independente from original drawings."
Version: 0.1
ItalicAngle: 0
UnderlinePosition: -100
UnderlineWidth: 50
Ascent: 800
Descent: 200
InvalidEm: 0
sfntRevision: 0x00010000
LayerCount: 2
Layer: 0 0 "Back" 1
Layer: 1 0 "Fore" 0
XUID: [1021 880 1058947518 6612584]
FSType: 8
OS2Version: 4
OS2_WeightWidthSlopeOnly: 0
OS2_UseTypoMetrics: 1
CreationTime: 1342706526
ModificationTime: 1567003760
PfmFamily: 17
TTFWeight: 200
TTFWidth: 5
LineGap: 90
VLineGap: 0
Panose: 2 0 3 3 0 0 0 0 0 0
OS2TypoAscent: 0
OS2TypoAOffset: 1
OS2TypoDescent: 0
OS2TypoDOffset: 1
OS2TypoLinegap: 90
OS2WinAscent: 0
OS2WinAOffset: 1
OS2WinDescent: 0
OS2WinDOffset: 1
HheadAscent: 0
HheadAOffset: 1
HheadDescent: 0
HheadDOffset: 1
OS2SubXSize: 650
OS2SubYSize: 699
OS2SubXOff: 0
OS2SubYOff: 140
OS2SupXSize: 650
OS2SupYSize: 699
OS2SupXOff: 0
OS2SupYOff: 479
OS2StrikeYSize: 49
OS2StrikeYPos: 258
OS2Vendor: 'PfEd'
OS2CodePages: 00000001.00000000
OS2UnicodeRanges: 00000003.00000000.00000000.00000000
MarkAttachClasses: 1
DEI: 91125

StartChar: .notdef
Encoding: 65536 -1 0
Width: 500
Flags: MW
HStem: 0 50<100 400 100 450> 483 50<100 400 100 100>
VStem: 50 50<50 50 50 483> 400 50<50 483 483 483>
LayerCount: 2
Fore
SplineSet
50 0 m 1
 50 533 l 1
 450 533 l 1
 450 0 l 1
 50 0 l 1
100 50 m 1
 400 50 l 1
 400 483 l 1
 100 483 l 1
 100 50 l 1
EndSplineSet
Validated: 1
EndChar

StartChar: exclam
Encoding: 33 33 2
Width: 414
GlyphClass: 2
Flags: MW
HStem: -32.2188 108.469<190.552 223.011>
VStem: 148 117.562<6.69043 36.3721>
LayerCount: 2
Fore
SplineSet
156.781 800.25 m 1
 156.781 101.25 l 1
 256.781 101.25 l 1
 256.781 800.25 l 1
 156.781 800.25 l 1
206.781 76.25 m 0
 174.322 76.25 148 51.2129 148 21.5312 c 0
 148 -8.15039 174.322 -32.2188 206.781 -32.2188 c 0
 239.24 -32.2188 265.562 -8.15039 265.562 21.5312 c 0
 265.562 51.2129 239.24 76.25 206.781 76.25 c 0
EndSplineSet
Validated: 9
EndChar

StartChar: quotedbl
Encoding: 34 34 3
Width: 454
GlyphClass: 2
Flags: MW
HStem: 548.764 0.55957<141.922 141.922 263.448 263.448> 780 20G<188.448 188.448 309.973 309.973> 780 20G<188.448 188.448 309.973 309.973>
VStem: 94 265.676<549.323 798.633>
LayerCount: 2
Fore
SplineSet
309.973 800 m 1xd0
 322.494 741.354 l 1
 359.676 549.323 l 1
 263.448 548.764 l 1
 263.322 549.323 l 1
 264.912 549.323 l 1
 227.729 741.354 l 1
 215.526 798.633 l 1
 309.973 800 l 1xd0
188.448 800 m 1
 200.97 741.354 l 1
 238.15 549.323 l 1
 141.922 548.764 l 1
 141.796 549.323 l 1
 143.388 549.323 l 1
 106.202 741.354 l 1
 94 798.633 l 1
 188.448 800 l 1
EndSplineSet
Validated: 1
EndChar

StartChar: numbersign
Encoding: 35 35 4
Width: 591
GlyphClass: 2
Flags: MW
HStem: 269.375 100.688 457.656 102.375<76 76>
LayerCount: 2
Fore
SplineSet
238.312 662.5 m 1
 212.656 566.75 l 1
 207.062 545.875 l 1
 200.909 548.753 194.188 551.546 186.688 554.125 c 0
 167.297 560.794 147.969 563.85 129.094 564.406 c 0
 127.128 564.464 125.175 564.495 123.219 564.5 c 0
 107.005 564.543 91.1797 562.802 76 560.031 c 1
 76 457.656 l 1
 105.741 465.14 133.948 466.524 154.188 459.562 c 0
 163.174 456.472 170.741 451.776 180.25 445.812 c 1
 159.156 367.062 l 1
 149.426 368.768 139.768 369.688 130.219 369.969 c 0
 128.253 370.027 126.3 370.057 124.344 370.062 c 0
 108.13 370.105 92.3047 368.365 77.125 365.594 c 1
 77.125 263.219 l 1
 97.0234 268.226 116.215 270.501 132.812 269.375 c 1
 97.5 137.5 l 1
 201.031 137.5 l 1
 201.094 137.75 l 1
 201.251 137.719 l 1
 225.251 227.313 l 1
 242.026 220.233 262.401 214.452 287.219 211.25 c 1
 267.469 137.5 l 1
 370.969 137.5 l 1
 371.062 137.813 l 1
 371.407 137.719 l 1
 389.845 206.563 l 1
 512.376 206.563 l 1
 512.376 306.562 l 1
 416.657 306.562 l 1
 442.501 403.062 l 1
 516.376 403.062 l 1
 516.376 503.062 l 1
 469.282 503.062 l 1
 503.688 631.438 l 1
 503.501 631.5 l 1
 511.812 662.5 l 1
 408.282 662.5 l 1
 378.126 549.969 l 1
 378.312 549.906 l 1
 365.751 503.062 l 1
 327.751 503.062 l 1
 327.751 503 l 1
 316.61 503.019 307.378 503.528 299.47 504.375 c 1
 309.251 540.875 l 1
 341.845 662.5 l 1
 238.312 662.5 l 1
273.531 407.594 m 1
 290.273 404.67 309.226 402.955 330.75 402.969 c 1
 330.75 403.062 l 1
 338.969 403.062 l 1
 313.75 308.938 l 1
 284.172 310.349 270.518 315.82 257.844 322.438 c 0
 255.861 323.473 253.807 324.647 251.688 325.938 c 1
 273.531 407.594 l 1
EndSplineSet
Validated: 41
EndChar

StartChar: percent
Encoding: 37 37 5
Width: 726
GlyphClass: 2
Flags: MW
HStem: 303.157 145.812<578.71 618.977> 428.531 145.844<116.523 156.789>
VStem: 63.75 145.812<481.304 521.571> 525.938 145.817<355.929 396.196>
LayerCount: 2
Fore
SplineSet
515.875 800 m 1x30
 54 0 l 1
 169.469 0 l 1
 631.343 800 l 1
 515.875 800 l 1x30
136.656 574.375 m 0x70
 96.3896 574.375 63.75 541.704 63.75 501.438 c 0
 63.75 461.171 96.3896 428.531 136.656 428.531 c 0
 176.922 428.531 209.562 461.171 209.562 501.438 c 0
 209.562 541.704 176.922 574.375 136.656 574.375 c 0x70
598.843 448.969 m 0xb0
 558.577 448.969 525.938 416.329 525.938 376.062 c 0
 525.938 335.796 558.577 303.157 598.843 303.157 c 0
 639.11 303.157 671.755 335.796 671.755 376.062 c 0
 671.755 416.329 639.11 448.969 598.843 448.969 c 0xb0
EndSplineSet
Validated: 9
EndChar

StartChar: ampersand
Encoding: 38 38 6
Width: 728
GlyphClass: 2
Flags: MW
HStem: 2.13867 100.634<239.62 243.865 240.282 243.865> 226.159 100.664<696.027 697.787> 278.961 96.8584<398.528 426.157> 705.347 103.653<350.508 350.512 317.089 358.613>
VStem: 62.0166 100.692<223 223>
LayerCount: 2
Fore
SplineSet
350.512 809 m 0xb8
 283.666 809 214.154 787.292 167.874 733.824 c 0
 132.462 692.911 124.196 640.42 127.785 591.464 c 0
 130.183 558.746 137.793 526.48 152.77 497.848 c 1
 92.4229 418.465 61.166 316.642 62.0166 223.607 c 0
 62.5029 170.499 73.6406 119.149 102.454 76.999 c 0
 131.265 34.8486 180.854 5.01367 238.96 2.16895 c 2
 239.62 2.13867 l 1
 240.282 2.13867 l 1
 326.058 0.1875 363.18 0.0078125 376.063 0.0302734 c 0
 376.094 0.0205078 376.124 0.0107422 376.155 0 c 0
 467.995 0 543.612 37.3955 589.663 97.7705 c 0
 618.46 135.525 636.049 180.479 644.165 229.022 c 1
 660.105 226.877 677.9 225.809 697.787 226.159 c 1
 696.027 326.823 l 1xd8
 648.973 325.998 631.933 332.575 616.189 340.795 c 0
 600.447 349.015 581.316 366.055 545.702 378.304 c 0
 526.176 385.021 506.683 388.097 487.676 388.658 c 0
 455.999 389.591 425.639 383.557 398.528 375.819 c 1
 426.157 278.961 l 1
 459.016 288.34 490.747 290.718 512.945 283.083 c 0
 524.377 279.151 533.538 272.655 547.308 264.203 c 1
 542.931 221.315 529.711 185.131 509.641 158.818 c 0
 482.757 123.572 444.451 101.626 380.403 100.697 c 1
 380.403 100.727 l 1
 380.403 100.727 353.519 100.291 243.865 102.772 c 1
 243.739 102.772 l 1
 213.462 104.282 198.953 114.277 185.586 133.831 c 0
 172.2 153.414 163.064 185.697 162.709 224.552 c 0
 162.131 287.774 185.386 365.411 224.229 424.026 c 1
 246.65 411.048 271.379 402.485 296.825 397.782 c 1
 296.825 505.118 l 1
 279.824 511.01 265.385 519.632 256.2 529.38 c 0
 246.013 540.19 233.313 569.568 231.152 599.049 c 0
 228.991 628.529 237.174 655.524 246.225 665.981 c 0
 266.025 688.856 307.73 705.344 350.508 705.347 c 0
 366.719 705.347 382.34 702.998 396.389 698.928 c 1
 396.389 805.446 l 1
 381.195 807.855 365.785 809.002 350.512 809 c 0xb8
EndSplineSet
Validated: 41
EndChar

StartChar: quotesingle
Encoding: 39 39 7
Width: 295
GlyphClass: 2
Flags: MW
HStem: 673.75 125<94 201>
LayerCount: 2
Fore
SplineSet
94 673.75 m 1
 177.25 673.25 l 1
 201 798.75 l 1
 117.75 800 l 1
 94 673.75 l 1
EndSplineSet
Validated: 9
EndChar

StartChar: parenleft
Encoding: 40 40 8
Width: 362
GlyphClass: 2
Flags: MW
HStem: -0.000976562 100<272.214 284.02 272.214 284.02> 700 100<272.214 284.02>
VStem: 84 100.02<375 425 375 425>
LayerCount: 2
Fore
SplineSet
284.02 800 m 1
 232.63 800 187.68 775.519 159.082 741.625 c 0
 130.484 707.731 114.754 666.562 104.27 624.625 c 0
 86.4258 553.25 84.292 476.983 84.0508 425 c 1
 84 425 l 1
 84 375 l 1
 84.0508 375 l 1
 84.291 323.016 86.4258 246.75 104.27 175.375 c 0
 114.754 133.436 130.484 92.2686 159.082 58.375 c 0
 187.68 24.4805 232.63 -0.000976562 284.02 -0.000976562 c 1
 284.02 99.999 l 1
 260.408 99.999 249.109 106.769 235.52 122.875 c 0
 221.93 138.98 209.534 166.564 201.27 199.625 c 0
 187.245 255.723 184.624 324.79 184.145 375 c 1
 184.02 375 l 1
 184.02 425 l 1
 184.145 425 l 1
 184.625 475.209 187.245 544.277 201.27 600.375 c 0
 209.534 633.438 221.93 661.019 235.52 677.125 c 0
 249.109 693.231 260.408 700 284.02 700 c 1
 284.02 800 l 1
EndSplineSet
Validated: 9
EndChar

StartChar: parenright
Encoding: 41 41 9
Width: 363
GlyphClass: 2
Flags: MW
HStem: -0.000976562 100<79 90.8057 79 104.694> 700 100<79 90.8057>
VStem: 179 100.018<375 425 375 425>
LayerCount: 2
Fore
SplineSet
79 800 m 1
 130.389 800 175.339 775.519 203.937 741.625 c 0
 232.535 707.731 248.265 666.562 258.75 624.625 c 0
 276.593 553.25 278.727 476.983 278.968 425 c 1
 279.018 425 l 1
 279.018 375 l 1
 278.968 375 l 1
 278.728 323.016 276.593 246.75 258.75 175.375 c 0
 248.265 133.436 232.535 92.2686 203.937 58.375 c 0
 175.339 24.4805 130.389 -0.000976562 79 -0.000976562 c 1
 79 99.999 l 1
 102.611 99.999 113.91 106.769 127.5 122.875 c 0
 141.089 138.98 153.484 166.564 161.75 199.625 c 0
 175.774 255.723 178.395 324.79 178.875 375 c 1
 179 375 l 1
 179 425 l 1
 178.875 425 l 1
 178.395 475.209 175.774 544.277 161.75 600.375 c 0
 153.484 633.438 141.089 661.019 127.5 677.125 c 0
 113.91 693.231 102.611 700 79 700 c 1
 79 800 l 1
EndSplineSet
Validated: 1
EndChar

StartChar: asterisk
Encoding: 42 42 10
Width: 409
GlyphClass: 2
Flags: W
LayerCount: 2
Fore
SplineSet
156.343 651.041 m 1
 156.343 544.916 l 1
 59.8428 576.102 l 1
 29 480.978 l 1
 125.406 449.728 l 1
 67.8428 370.447 l 1
 148.781 311.665 l 1
 205.031 388.259 l 1
 261.281 311.665 l 1
 342.219 370.447 l 1
 284.656 449.728 l 1
 381.062 480.978 l 1
 350.219 576.102 l 1
 253.719 544.916 l 1
 253.719 651.041 l 1
 206.031 651.041 l 1
 204.031 651.041 l 1
 156.343 651.041 l 1
EndSplineSet
Validated: 9
EndChar

StartChar: plus
Encoding: 43 43 11
Width: 632
GlyphClass: 2
Flags: W
LayerCount: 2
Fore
SplineSet
265.906 595.656 m 1
 265.906 433.75 l 1
 104 433.75 l 1
 104 333.75 l 1
 265.906 333.75 l 1
 265.906 171.844 l 1
 365.906 171.844 l 1
 365.906 333.75 l 1
 527.812 333.75 l 1
 527.812 433.75 l 1
 365.906 433.75 l 1
 365.906 595.656 l 1
 265.906 595.656 l 1
EndSplineSet
Validated: 9
EndChar

StartChar: comma
Encoding: 44 44 12
Width: 271
GlyphClass: 2
Flags: MW
HStem: -30.7695 150<76 137.785 76 137.785>
VStem: 76 100<56.7305 69.2305 69.2305 81.0156 56.7305 82.8833>
LayerCount: 2
Fore
SplineSet
76 69.2305 m 2
 76 96.5361 102.43 119.23 126 119.23 c 0
 149.57 119.23 176 92.8008 176 69.2305 c 0
 176 44.2305 101 -30.7695 101 -30.7695 c 1
 76 -30.7695 l 1
 76 69.2305 l 2
EndSplineSet
Validated: 1
EndChar

StartChar: hyphen
Encoding: 45 45 13
Width: 520
GlyphClass: 2
Flags: MW
HStem: 333.757 100<48 471.802 48 471.802>
LayerCount: 2
Fore
SplineSet
48 433.757 m 1
 471.802 433.757 l 1
 471.802 333.757 l 1
 48 333.757 l 1
 48 433.757 l 1
EndSplineSet
Validated: 1
EndChar

StartChar: period
Encoding: 46 46 14
Width: 411
GlyphClass: 2
Flags: HMW
HStem: 350 200<177.4 232.6>
VStem: 105 200<422.4 477.6>
LayerCount: 2
Fore
SplineSet
305 86 m 0
 305 30.7998 260.2 -14 205 -14 c 0
 149.8 -14 105 30.7998 105 86 c 0
 105 141.2 149.8 186 205 186 c 0
 260.2 186 305 141.2 305 86 c 0
EndSplineSet
Validated: 1
EndChar

StartChar: slash
Encoding: 47 47 15
Width: 577
GlyphClass: 2
Flags: MW
HStem: 0 21G<0 115.469 0 0> 0 21G<0 115.469 0 0> 780 20G<461.875 577.344 577.344 577.344> 780 20G<461.875 577.344 577.344 577.344>
LayerCount: 2
Fore
SplineSet
461.875 800 m 1xa0
 577.344 800 l 1
 115.469 0 l 1
 0 0 l 1
 461.875 800 l 1xa0
EndSplineSet
Validated: 1
EndChar

StartChar: zero
Encoding: 48 48 16
Width: 637
GlyphClass: 2
Flags: MW
HStem: -11.9375 100<295.72 341.22 295.72 351.693> 712 100<295.72 341.22>
VStem: 65 100<330.448 469.614 330.448 474.869> 471.75 100<329.79 470.272>
LayerCount: 2
Fore
SplineSet
318.375 812 m 0
 251.362 812 179.026 785.125 133.156 717.344 c 0
 87.2871 649.562 65 549.706 65 400.031 c 0
 65 250.357 87.2871 150.5 133.156 82.7188 c 0
 179.026 14.9375 251.362 -11.9375 318.375 -11.9375 c 0
 385.011 -11.9375 457.52 14.0625 503.531 81.6562 c 0
 549.542 149.25 571.75 249.132 571.75 400.031 c 0
 571.75 550.93 549.542 650.812 503.531 718.406 c 0
 457.52 786 385.011 812 318.375 812 c 0
318.375 712 m 0
 364.064 712 393.245 702.701 420.844 662.156 c 0
 448.443 621.611 471.75 540.513 471.75 400.031 c 0
 471.75 259.549 448.443 178.451 420.844 137.906 c 0
 393.245 97.3613 364.064 88.0625 318.375 88.0625 c 0
 273.064 88.0625 243.709 97.7578 215.969 138.75 c 0
 188.229 179.742 165 260.865 165 400.031 c 0
 165 539.197 188.229 620.32 215.969 661.312 c 0
 243.709 702.305 273.064 712 318.375 712 c 0
EndSplineSet
Validated: 9
EndChar

StartChar: one
Encoding: 49 49 17
Width: 368
GlyphClass: 2
Flags: MW
VStem: 178.218 100<0 626.312 0 800>
LayerCount: 2
Fore
SplineSet
178.216 800 m 1
 178.216 795.781 l 1
 177.906 795.781 l 1
 177.906 769.777 153.864 736.053 122.156 709.562 c 0
 117.403 705.592 112.661 701.887 108 698.406 c 1
 108 580.156 l 1
 119.385 586.199 147.888 602.221 178.218 626.312 c 1
 178.218 0 l 1
 278.218 0 l 1
 278.218 800 l 1
 178.216 800 l 1
EndSplineSet
Validated: 9
EndChar

StartChar: two
Encoding: 50 50 18
Width: 574
GlyphClass: 2
Flags: MW
HStem: 696.812 100.031
VStem: 72.2637 125.843 74.2002 98.1562 376.325 99.875
LayerCount: 2
Fore
SplineSet
315.514 796.844 m 0xd0
 283.96 795.968 253.042 786.826 226.825 767.469 c 0
 196.863 745.346 174.818 705.158 178.419 661.844 c 1
 278.075 670.125 l 1
 277.249 680.061 278.717 681.451 286.231 687 c 0
 293.746 692.549 309.101 697.518 324.481 696.812 c 0
 339.863 696.107 353.766 690.501 362.356 682.125 c 0
 370.947 673.749 377.632 662.66 376.325 636.469 c 0
 373.512 580.049 335.877 545.893 277.639 502.844 c 0
 219.399 459.795 142.848 415.903 106.389 331.906 c 0
 83.0898 278.231 77.4541 211.262 74.2002 153.563 c 0xb0
 70.9473 95.8633 72.2637 48.5938 72.2637 48.5938 c 1xd0
 73.6064 0 l 1
 122.264 0 l 1
 472.264 0 l 1
 472.264 100 l 1
 172.356 100 l 1xb0
 172.624 114.353 173.04 130.138 174.044 147.938 c 0
 177.04 201.064 186.409 265.089 198.106 292.062 c 1
 198.106 292.094 l 1
 217.772 337.366 274.312 376.013 337.075 422.406 c 0
 399.851 468.808 471.188 531.003 476.2 631.5 c 0
 478.675 681.106 461.378 725.242 432.169 753.719 c 0
 402.96 782.196 365.215 795.061 329.044 796.719 c 0
 324.523 796.926 320.021 796.969 315.514 796.844 c 0xd0
EndSplineSet
Validated: 37
EndChar

StartChar: three
Encoding: 51 51 19
Width: 587
GlyphClass: 2
Flags: MW
HStem: 0 98.3125<75 75.1865> 702.062 100<145.938 146.031>
VStem: 400.625 100<601 601>
LayerCount: 2
Fore
SplineSet
198.938 802.719 m 0
 176.903 802.67 158.357 802.048 146.031 802.062 c 1
 145.938 702.062 l 1
 176.342 702.027 220.175 704.182 264.156 700.344 c 0
 308.137 696.505 349.926 685.194 370.781 669.25 c 0
 386.025 657.596 400.655 625.703 400.625 601.906 c 0
 400.598 578.136 380.299 543.318 353.562 508.656 c 0
 338.393 488.99 298.274 454.247 263.719 428.094 c 0
 229.164 401.941 199.938 382.656 199.938 382.656 c 1
 255 299.188 l 1
 255 299.188 284.858 318.879 320.719 345.844 c 1
 361.842 280.336 381.904 243.31 391.688 220.656 c 0
 403.246 193.891 402.237 185.799 408.75 156.344 c 0
 412.174 140.859 409.728 126.199 404.031 117.844 c 0
 398.334 109.488 389.242 100.72 356.219 99.9688 c 0
 269.2 97.9893 75.1865 98.3125 75.1865 98.3125 c 1
 75 0 l 1
 75 0 267.896 -0.40332 358.438 1.65625 c 0
 414.194 2.92383 460.555 26.2188 485.25 62.4375 c 0
 509.945 98.6562 512.828 141.061 504.75 177.594 c 0
 499.761 200.155 497.805 222.954 481.969 259.625 c 0
 467.867 292.279 444.041 335.047 397.219 408.906 c 1
 410.262 421.316 422.416 434.237 432.719 447.594 c 0
 461.53 484.946 500.55 534.604 500.625 601.781 c 0
 500.695 656.658 478.757 712.56 431.5 748.688 c 0
 383.831 785.131 325.574 795.37 272.875 799.969 c 0
 246.525 802.268 220.972 802.768 198.938 802.719 c 0
EndSplineSet
Validated: 41
EndChar

StartChar: four
Encoding: 52 52 20
Width: 554
GlyphClass: 2
Flags: W
LayerCount: 2
Fore
SplineSet
242.25 799.375 m 1
 53.4678 429.406 l 1
 48 418.719 l 1
 48 406.688 l 1
 48 299.469 l 1
 48 249.5 l 1
 97.9678 249.469 l 1
 350.438 249.281 l 1
 350.438 0 l 1
 350.438 -2.28125 l 1
 450.438 -2.28125 l 1
 450.438 0 l 1
 450.438 249.219 l 1
 499.156 249.187 l 1
 499.218 349.188 l 1
 450.438 349.219 l 1
 450.438 424.25 l 1
 350.438 424.25 l 1
 350.438 349.281 l 1
 148 349.438 l 1
 148 349.625 l 1
 123.406 349.625 l 1
 151.812 402.094 l 1
 354.218 798.75 l 1
 242.25 799.375 l 1
EndSplineSet
Validated: 9
EndChar

StartChar: five
Encoding: 53 53 21
Width: 630
GlyphClass: 2
Flags: MW
HStem: -9.28125 100<268.14 316.008 268.14 324.155> 526.062 100<277.724 318.071> 800.094 21G<142.719 142.719> 800.094 21G<142.719 142.719>
VStem: 445.376 100<268.991 375.634>
LayerCount: 2
Fore
SplineSet
140.469 800.625 m 1xe8
 84.75 536.562 l 1
 86.0938 536.25 l 2
 85.793 535.79 85.4863 535.339 85.1875 534.875 c 2
 164.344 472.031 l 1
 170.107 483.032 176.41 491.255 182.812 497.406 c 0
 205.496 519.197 240.154 526.062 292 526.062 c 0
 344.143 526.062 378.795 519.452 401.282 498 c 0
 423.771 476.548 445.376 428.956 445.376 322.312 c 0
 445.376 215.669 423.482 158.383 398.157 129.438 c 0
 372.829 100.492 340.016 90.7188 292 90.7188 c 0
 244.279 90.7188 211.386 100.771 185.907 130.062 c 0
 178.019 139.127 170.493 150.867 163.844 165.906 c 1
 76 117.094 l 1
 85.6074 97.2637 97.0898 79.7812 110.438 64.4375 c 0
 158.568 9.10938 227.396 -9.28125 292 -9.28125 c 0
 356.311 -9.28125 425.156 8.38281 473.438 63.5625 c 0
 521.72 118.742 545.376 202.279 545.376 322.312 c 0
 545.376 442.346 521.435 521.608 470.312 570.375 c 0
 419.191 619.142 352.185 626.062 292 626.062 c 0
 263.448 626.062 233.412 624.354 204.312 617.406 c 1
 221.876 700.625 l 1
 472.719 700.625 l 1
 472.719 800.625 l 1
 142.719 800.625 l 1
 142.719 800.094 l 1
 140.469 800.625 l 1xe8
EndSplineSet
Validated: 9
EndChar

StartChar: six
Encoding: 54 54 22
Width: 641
GlyphClass: 2
Flags: MW
HStem: -10.9355 100<308.364 332.532 308.364 362.937> 399.847 99.999<308.364 356.588> 711.003 100<299.53 340.759>
VStem: 69 101.344 479.782 100<207.958 280.922>
LayerCount: 2
Fore
SplineSet
332.532 -10.9355 m 0
 393.342 -10.9355 455.987 0.336914 504.719 42.4717 c 0
 553.451 84.6055 579.782 153.517 579.782 244.44 c 0
 579.782 335.364 553.451 404.275 504.719 446.409 c 0
 455.987 488.543 393.342 499.846 332.532 499.846 c 0
 275.94 499.846 217.617 490.471 170.344 455.003 c 1
 175.672 561.567 196.204 626.339 219.907 661.159 c 0
 247.506 701.704 276.686 711.003 322.375 711.003 c 0
 359.144 711.003 385.396 704.623 408.812 680.315 c 1
 497.282 730.378 l 1
 451.331 787.878 384.565 811.003 322.375 811.003 c 0
 255.738 811.003 183.261 785.034 137.25 717.44 c 0
 91.2363 649.847 69 549.933 69 399.034 c 0
 69 328.497 77.9873 229.832 90.5322 178.065 c 1
 100.43 119.027 124.256 73 160.5 41.8467 c 0
 209.375 -0.165039 271.94 -10.9355 332.532 -10.9355 c 0
332.532 89.0645 m 0
 284.196 89.0645 248.195 98.3438 225.688 117.69 c 0
 203.18 137.036 185.312 170.678 185.312 244.44 c 0
 185.312 318.203 203.18 351.876 225.688 371.221 c 0
 248.195 390.568 284.196 399.847 332.532 399.847 c 0
 380.644 399.847 416.662 390.368 439.312 370.784 c 0
 461.962 351.2 479.782 317.404 479.782 244.44 c 0
 479.782 171.477 461.962 137.712 439.312 118.128 c 0
 416.662 98.5439 380.644 89.0654 332.532 89.0645 c 0
EndSplineSet
Validated: 9
EndChar

StartChar: seven
Encoding: 55 55 23
Width: 614
GlyphClass: 2
Flags: MW
HStem: 392.531 100.031<499.469 499.469> 452.5 101.562
LayerCount: 2
Fore
SplineSet
80 799.376 m 1x80
 80 699.376 l 1
 420.031 699.376 l 1
 350.501 545.282 l 1
 332.762 550.835 315.092 553.46 297.812 553.969 c 0
 295.847 554.028 293.893 554.058 291.937 554.062 c 0
 275.723 554.107 259.899 552.365 244.719 549.594 c 1
 244.719 447.219 l 1
 267.994 453.075 290.345 455.191 308.656 452.5 c 1x40
 104.282 -0.59375 l 1
 214.001 -0.59375 l 1
 398.719 408.938 l 1
 423.906 399.244 456.615 392.504 499.469 392.531 c 1
 499.469 492.562 l 1
 469.41 492.389 452.47 495.439 439.812 500 c 1
 529.719 699.375 l 1
 529.999 699.375 l 1
 529.999 699.969 l 1
 529.999 799.375 l 1
 80 799.376 l 1x80
EndSplineSet
Validated: 41
EndChar

StartChar: eight
Encoding: 56 56 24
Width: 645
GlyphClass: 2
Flags: MW
HStem: -0.5 100.188<409.999 413.593> 395.281 105.312 712.375 105.406<327 327>
VStem: 478.312 100.094
LayerCount: 2
Fore
SplineSet
327.406 817.781 m 0
 259.418 817.776 188.694 795.724 141.624 741.344 c 0
 105.607 699.733 97.1934 646.323 100.844 596.531 c 0
 104.494 546.74 120.006 497.934 154.749 461.062 c 0
 159.054 456.496 163.566 452.209 168.218 448.156 c 1
 106.257 386.452 72.9365 298.233 66.9375 215.656 c 0
 63.3477 166.246 69.6289 117.483 93.4688 75.875 c 0
 117.308 34.2676 163.686 2.67578 218.343 0 c 2
 218.999 -0.03125 l 1
 219.656 -0.03125 l 1
 267.031 -1.10938 296.065 -1.50781 313.281 -1.65625 c 1
 313.249 -2.03125 l 1
 313.249 -2.03125 322.909 -2.55957 413.593 -0.5 c 1
 414.249 -0.46875 l 1
 414.906 -0.4375 l 2
 471.474 2.33203 519.827 30.1338 546.562 70.5938 c 0
 573.297 111.053 580.857 159.403 578.406 207.875 c 0
 574.002 294.951 538.252 387.118 478.999 454.625 c 1
 514.703 490.137 533.437 538.014 540.938 587.062 c 0
 548.832 638.685 544.936 694.466 509.938 739.281 c 0
 465.848 795.738 395.395 817.786 327.406 817.781 c 0
327.406 712.375 m 0
 370.914 712.378 410.272 695.595 426.843 674.375 c 0
 434.445 664.641 441.626 635.091 436.718 603 c 0
 431.811 570.909 415.486 539.157 402.218 527.062 c 0
 383.309 509.825 349.707 499.092 315.124 500.594 c 0
 280.542 502.095 247.842 515.999 231.468 533.375 c 0
 221.108 544.37 208.198 574.266 205.999 604.25 c 0
 203.801 634.234 212.139 661.708 221.343 672.344 c 0
 241.481 695.61 283.898 712.372 327.406 712.375 c 0
389.124 403.688 m 1
 436.881 357.844 474.896 270.344 478.312 202.812 c 0
 480.024 168.957 473.345 141.594 462.938 125.844 c 0
 452.537 110.105 440.866 101.208 410.062 99.6875 c 1
 409.999 99.6875 l 2
 366.861 98.7109 344.69 98.2637 333.281 98.0625 c 1
 333.281 98.5 l 1
 333.281 98.5 311.901 98.166 222.718 100.188 c 0
 198.887 101.46 190.256 108.581 180.438 125.719 c 0
 170.54 142.993 164.354 173.279 166.906 208.406 c 0
 172.011 278.66 212.426 362.812 264.656 398.469 c 1
 262.499 401.656 l 1
 278.288 398.067 294.428 395.982 310.562 395.281 c 0
 336.743 394.145 363.483 396.686 389.124 403.688 c 1
EndSplineSet
Validated: 41
EndChar

StartChar: nine
Encoding: 57 57 25
Width: 642
GlyphClass: 2
Flags: MW
HStem: -11.5596 100<301.022 342.251 301.022 352.726> 299.596 100<285.194 333.418 285.194 337.546> 710.378 100<285.194 333.418>
VStem: 62 100<518.521 591.484 518.521 600.464> 471.438 101.345
LayerCount: 2
Fore
SplineSet
309.25 810.378 m 0
 248.439 810.378 185.795 799.106 137.062 756.972 c 0
 88.3301 714.838 62 645.926 62 555.003 c 0
 62 464.079 88.3301 395.168 137.062 353.034 c 0
 185.795 310.9 248.439 299.596 309.25 299.596 c 0
 365.842 299.596 424.166 308.972 471.438 344.44 c 1
 466.11 237.876 445.578 173.104 421.875 138.284 c 0
 394.276 97.7383 365.096 88.4404 319.407 88.4404 c 0
 282.638 88.4404 256.386 94.8203 232.969 119.128 c 1
 144.5 69.0654 l 1
 190.451 11.5645 257.217 -11.5596 319.407 -11.5596 c 0
 386.044 -11.5596 458.521 14.4092 504.532 82.0029 c 0
 550.545 149.596 572.782 249.51 572.782 400.409 c 0
 572.782 470.946 563.795 569.611 551.25 621.378 c 1
 541.352 680.416 517.526 726.443 481.282 757.597 c 0
 432.407 799.608 369.842 810.378 309.25 810.378 c 0
309.25 710.378 m 0
 357.586 710.378 393.588 701.099 416.094 681.753 c 0
 438.602 662.407 456.469 628.765 456.469 555.003 c 0
 456.469 481.24 438.602 447.567 416.094 428.221 c 0
 393.588 408.875 357.586 399.596 309.25 399.596 c 0
 261.138 399.596 225.12 409.075 202.469 428.659 c 0
 179.819 448.243 162 482.039 162 555.003 c 0
 162 627.966 179.819 661.732 202.469 681.315 c 0
 225.12 700.899 261.138 710.378 309.25 710.378 c 0
EndSplineSet
Validated: 9
EndChar

StartChar: colon
Encoding: 58 58 26
Width: 350
GlyphClass: 2
Flags: MW
HStem: -15.4863 107.486<159.542 192.001> 206.514 107.486<157.542 190.001>
VStem: 117 117.542<23.4165 53.0972>
LayerCount: 2
Fore
SplineSet
234.542 38.2568 m 0
 234.542 8.57617 208.23 -15.4863 175.771 -15.4863 c 0
 143.312 -15.4863 117 8.57617 117 38.2568 c 0
 117 67.9375 143.312 92 175.771 92 c 0
 208.23 92 234.542 67.9375 234.542 38.2568 c 0
232.542 260.257 m 0
 232.542 230.576 206.23 206.514 173.771 206.514 c 0
 141.312 206.514 115 230.576 115 260.257 c 0
 115 289.938 141.312 314 173.771 314 c 0
 206.23 314 232.542 289.938 232.542 260.257 c 0
EndSplineSet
Validated: 1
EndChar

StartChar: semicolon
Encoding: 59 59 27
Width: 309
GlyphClass: 2
Flags: MW
HStem: 164.514 107.486<118.542 151.001>
VStem: 76 117.542<203.417 233.098> 84.7715 100<34.5 47 47 58.7856 34.5 60.6533>
LayerCount: 2
Fore
SplineSet
193.542 218.257 m 0xc0
 193.542 188.576 167.23 164.514 134.771 164.514 c 0
 102.312 164.514 76 188.576 76 218.257 c 0
 76 247.939 102.312 272 134.771 272 c 0
 167.23 272 193.542 247.939 193.542 218.257 c 0xc0
84.7715 47 m 2xa0
 84.7715 74.3066 111.201 97 134.771 97 c 0
 158.341 97 184.771 70.5713 184.771 47 c 0
 184.771 22 109.771 -52.999 109.771 -52.999 c 1
 84.7715 -52.999 l 1
 84.7715 47 l 2xa0
EndSplineSet
Validated: 1
EndChar

StartChar: less
Encoding: 60 60 28
Width: 531
GlyphClass: 2
Flags: MW
VStem: 104 321.62<227.83 381.797 227.83 381.797>
LayerCount: 2
Fore
SplineSet
425.62 596.21 m 1
 424.479 476.458 l 1
 278.496 377.235 l 1
 278.496 327.053 l 1
 425.62 227.83 l 1
 426.76 110.359 l 1
 104 325.913 l 1
 104 381.797 l 1
 425.62 596.21 l 1
EndSplineSet
Validated: 1
EndChar

StartChar: greater
Encoding: 62 62 29
Width: 531
GlyphClass: 2
Flags: MW
VStem: 105.14 321.62<115.574 385.871 329.987 483.954>
LayerCount: 2
Fore
SplineSet
105.14 115.574 m 1
 106.281 235.326 l 1
 252.264 334.549 l 1
 252.264 384.731 l 1
 105.14 483.954 l 1
 104 601.425 l 1
 426.76 385.871 l 1
 426.76 329.987 l 1
 105.14 115.574 l 1
EndSplineSet
Validated: 1
EndChar

StartChar: question
Encoding: 63 63 30
Width: 536
GlyphClass: 2
Flags: MW
HStem: -18.5312 107.5<191.864 224.323> 700.25 99.5<70 306.125>
VStem: 149.344 117.531<20.3779 50.0596>
LayerCount: 2
Fore
SplineSet
70 799.75 m 1
 70 700.25 l 1
 306.125 700.25 l 2
 347.473 700.25 355.603 691.118 363.469 668.438 c 0
 371.334 645.757 369.327 599.926 347.219 544.656 c 0
 327.943 496.467 292.763 470.188 252.5 440.375 c 0
 232.368 425.469 211.078 410.299 192.312 388.406 c 0
 173.547 366.514 158.375 335.037 158.375 300 c 2
 158.375 130.969 l 1
 257.844 130.969 l 1
 257.844 300 l 2
 257.844 310.199 259.608 314.085 267.812 323.656 c 0
 276.017 333.228 291.715 345.649 311.687 360.438 c 0
 351.633 390.015 409.102 431.568 439.562 507.719 c 0
 467.19 576.789 477.6 642.891 457.437 701.031 c 0
 437.274 759.172 376.892 799.75 306.125 799.75 c 2
 70 799.75 l 1
208.094 88.9688 m 0
 175.635 88.9688 149.344 64.9004 149.344 35.2188 c 0
 149.344 5.53711 175.635 -18.5312 208.094 -18.5312 c 0
 240.552 -18.5312 266.875 5.53711 266.875 35.2188 c 0
 266.875 64.9004 240.552 88.9688 208.094 88.9688 c 0
EndSplineSet
Validated: 41
EndChar

StartChar: at
Encoding: 64 64 31
Width: 781
GlyphClass: 2
Flags: MW
HStem: -36.4375 100<366.909 431.849 366.909 442.307> 266.188 100<376.26 392.927 376.26 407.54> 566.188 100<378.26 394.927> 800 100<355.315 422.029>
VStem: 65 100<368.908 523.655 368.908 529.992> 208.594 100<455.026 477.114 455.026 490.617> 464.594 100.281<455.497 477.114> 612.188 99.9971<438.914 524.391>
LayerCount: 2
Fore
SplineSet
388.594 900 m 0
 304.043 900 216.682 874.448 156.375 800.562 c 0
 96.0693 726.677 65 613.703 65 446.281 c 0
 65 278.86 107.662 136.886 167.969 63 c 0
 228.275 -10.8857 315.637 -36.4375 400.188 -36.4375 c 0
 484.426 -36.4375 571.854 -11.7959 632.312 61.8438 c 0
 633.045 62.7363 633.776 63.627 634.5 64.5312 c 1
 548.75 118.094 l 1
 511.124 76.7998 463.511 63.5625 400.188 63.5625 c 0
 333.63 63.5625 284.157 78.8115 245.438 126.25 c 0
 206.718 173.689 165 291.534 165 446.281 c 0
 165 601.028 195.124 689.905 233.844 737.344 c 0
 272.564 784.783 322.036 800 388.594 800 c 0
 455.465 800 539.619 802.633 578.188 755.656 c 0
 616.756 708.679 612.188 602.501 612.188 446.281 c 0
 612.188 431.547 612.489 420.484 611.062 404.344 c 0
 609.636 388.204 609.993 368.309 589.875 366.188 c 0
 569.757 364.066 564.141 392.294 564.875 411.938 c 0
 565.609 431.581 564.875 468.977 564.875 491.188 c 2
 564.875 666.188 l 1
 464.875 666.188 l 1
 464.875 644 l 1
 441.952 657.664 415.558 666.188 386.594 666.188 c 0
 332.55 666.188 287.416 636.532 257.188 599.125 c 0
 226.959 561.718 208.594 515.046 208.594 466.188 c 0
 208.594 417.8 226.189 371.202 255.875 333.656 c 0
 285.561 296.11 330.55 266.188 384.594 266.188 c 0
 430.486 266.188 470.048 287.382 499.781 316.594 c 1
 502.23 312.902 504.865 309.264 507.781 305.688 c 0
 525.458 284.007 556.208 266.417 589.219 266.188 c 2
 589.25 266.188 l 1
 589.875 266.188 l 2
 621.312 266.188 650.419 279.58 670.688 297.906 c 0
 689.875 314.919 701.385 332.565 706.155 358.188 c 1
 708.895 382.173 712.185 409.25 712.185 446.281 c 0
 712.185 615.065 715.955 745.486 655.5 819.125 c 0
 595.041 892.764 472.832 900 388.594 900 c 0
386.594 566.188 m 0
 403.26 566.188 422.125 556.197 438.219 536.281 c 0
 454.312 516.366 464.594 488.04 464.594 466.188 c 0
 464.594 444.807 454.119 416.555 437.562 396.5 c 0
 421.006 376.445 401.26 366.188 384.594 366.188 c 0
 367.927 366.188 349.949 375.911 334.312 395.688 c 0
 318.676 415.464 308.594 443.864 308.594 466.188 c 0
 308.594 488.04 318.875 516.366 334.969 536.281 c 0
 351.062 556.197 369.927 566.188 386.594 566.188 c 0
EndSplineSet
Validated: 41
EndChar

StartChar: A
Encoding: 65 65 32
Width: 467
GlyphClass: 2
Flags: W
LayerCount: 2
Fore
SplineSet
152.062 800.656 m 1
 7 0.03125 l 1
 106.657 0.03125 l 1
 115.844 50.0312 l 1
 350.844 50.0312 l 1
 358.562 0.03125 l 1
 459.782 0.03125 l 1
 336.562 800 l 1
 152.062 800.656 l 1
235.157 699.469 m 1
 250.594 699.219 l 1
 278.856 516.155 307.139 333.094 335.407 150.031 c 1
 134.219 150.031 l 1
 167.864 333.177 201.507 516.323 235.157 699.469 c 1
EndSplineSet
Validated: 9
EndChar

StartChar: B
Encoding: 66 66 33
Width: 655
GlyphClass: 2
Flags: MW
HStem: -0.71875 100 700.188 100<348.75 403.908>
VStem: 485.593 100<179 179>
LayerCount: 2
Fore
SplineSet
383.124 800.188 m 0
 295.616 800.188 146.218 799.625 146.218 799.625 c 1
 96.4375 799.438 l 1
 96.4062 749.656 l 1
 96 0.03125 l 1
 148.781 0 l 1
 149.093 -0.0634766 l 1
 149.124 0 l 1
 183.843 0 l 2
 198.712 -0.248047 216.838 -0.503906 237.438 -0.71875 c 0
 285.256 -1.21777 341.895 -1.45703 379.624 -0.46875 c 0
 420.037 0.589844 472.917 4.77539 521.374 40.7188 c 0
 565.922 73.7627 585.398 127.147 585.593 179.594 c 0
 585.788 232.041 567.378 286.611 529.124 330.531 c 2
 455.812 414.688 l 1
 481.438 441.158 503.108 471.273 517.249 506.625 c 0
 545.024 576.062 555.488 642.489 535.218 700.938 c 0
 514.948 759.386 454.266 800.188 383.124 800.188 c 0
383.124 700.188 m 0
 424.692 700.188 432.842 690.988 440.749 668.188 c 0
 448.657 645.386 446.631 599.312 424.406 543.75 c 0
 406.663 499.392 353.155 452.655 289.968 410.531 c 0
 259.006 389.889 226.703 370.83 196.188 351.188 c 1
 196.374 699.75 l 1
 238.636 699.899 314.377 700.188 383.124 700.188 c 0
379.124 350.469 m 1
 453.718 264.844 l 2
 475.014 240.393 485.698 208.063 485.593 179.969 c 0
 485.488 151.874 475.305 131.04 461.812 121.031 c 0
 437.039 102.655 413.615 100.459 376.999 99.5 c 0
 342.4 98.5938 285.762 98.7871 238.468 99.2812 c 0
 222.685 99.4453 208.733 99.6484 196.062 99.8438 c 1
 196.125 227.844 l 1
 229.212 254.299 287.371 288.633 345.438 327.344 c 0
 356.637 334.81 367.929 342.488 379.124 350.469 c 1
EndSplineSet
Validated: 41
EndChar

StartChar: C
Encoding: 67 67 34
Width: 631
GlyphClass: 2
Flags: MW
HStem: -21.25 102.656<333 333 334 334> 719.219 102.656<299.715 333.714 286.895 367.642>
VStem: 55.5732 102.53
LayerCount: 2
Fore
SplineSet
333.714 821.875 m 2
 240.075 821.875 162.949 783.714 115.995 722.156 c 0
 69.2744 660.904 51.5098 581.127 55.5576 497.469 c 1
 55.5078 497.469 l 2
 55.5078 497.094 55.5576 496.599 55.5732 496.219 c 0
 57.3799 432.892 70.2861 315.325 106.979 205.844 c 0
 125.436 150.773 149.643 97.7803 185.26 55.0625 c 0
 220.877 12.3447 272.176 -20.6641 333.198 -21.25 c 2
 333.698 -21.25 l 1
 334.198 -21.25 l 2
 395.219 -20.6641 446.518 12.3447 482.135 55.0625 c 0
 486.644 60.4707 490.979 66.0283 495.135 71.75 c 1
 406.854 125.218 l 1
 405.667 123.701 404.489 122.217 403.291 120.781 c 0
 380.547 93.5029 360.131 81.8066 333.698 81.4062 c 0
 307.264 81.8057 286.816 93.5029 264.073 120.781 c 0
 241.181 148.236 220.248 190.859 204.291 238.469 c 0
 172.378 333.689 159.477 448.815 158.104 500.219 c 1
 158.104 500.844 l 1
 158.054 501.438 l 1
 154.681 567.599 169.572 623.211 197.585 659.938 c 0
 225.598 696.664 265.751 719.219 333.679 719.219 c 0
 401.605 719.219 441.759 696.664 469.771 659.938 c 0
 476.884 650.614 483.155 640.058 488.491 628.438 c 1
 577.71 679.906 l 1
 570.236 694.752 561.479 708.898 551.366 722.156 c 0
 504.413 783.714 427.317 821.875 333.679 821.875 c 2
 333.714 821.875 l 2
EndSplineSet
Validated: 37
EndChar

StartChar: D
Encoding: 68 68 35
Width: 641
GlyphClass: 2
Flags: MW
HStem: 1.09375 98.3125<196 196> 702.062 98.3125
LayerCount: 2
Fore
SplineSet
269.125 800.375 m 0
 242.868 800.081 219.973 799.812 196 799.531 c 1
 196 800 l 1
 96 800 l 1
 96 0 l 1
 196 0 l 1
 196 1.09375 l 1
 273.428 1.17969 378.564 1.52637 432.375 2.75 c 0
 488.131 4.01855 534.492 27.3125 559.188 63.5312 c 0
 583.883 99.75 586.766 142.155 578.688 178.688 c 0
 567.982 227.1 560.197 290.209 517.625 465.312 c 0
 474.742 641.699 447.068 712.964 409.812 754.344 c 1
 410.116 754.007 392.896 774.463 369.156 784.938 c 0
 345.415 795.412 314.597 800.885 269.125 800.375 c 0
270.219 702.062 m 0
 306.886 702.474 323.917 697.449 329.469 695 c 0
 335.02 692.551 328.51 697.649 336.719 688.531 c 0
 344.948 679.391 380.43 613.303 422.062 442.062 c 0
 464.007 269.54 470.389 213.058 482.688 157.438 c 0
 486.112 141.953 483.635 127.293 477.938 118.938 c 0
 472.24 110.582 463.148 101.783 430.125 101.031 c 0
 378.748 99.8623 273.595 99.501 196 99.4062 c 1
 196 701.188 l 1
 220.251 701.479 243.568 701.764 270.219 702.062 c 0
EndSplineSet
Validated: 41
EndChar

StartChar: E
Encoding: 69 69 36
Width: 608
GlyphClass: 2
Flags: MW
HStem: 389.406 100.031<439.938 439.938> 446.562 104.375
LayerCount: 2
Fore
SplineSet
96 800 m 1x40
 96 700 l 1
 96 100 l 1
 96 0 l 1
 196 0 l 1
 519.781 0 l 1
 519.781 100 l 1
 196 100 l 1
 196 446.562 l 1x40
 221.706 451.8 245.601 452.113 263.375 446 c 0
 279.893 440.319 291.349 429.404 319.594 414.656 c 0
 346.699 400.504 384.991 389.371 439.938 389.406 c 1
 439.938 489.438 l 1x80
 397.23 489.191 380.93 495.468 365.906 503.312 c 0
 350.273 511.475 331.242 528.398 295.875 540.562 c 0
 276.484 547.232 257.156 550.287 238.281 550.844 c 0
 236.315 550.902 234.362 550.933 232.406 550.938 c 0
 219.994 550.971 207.841 549.97 196 548.25 c 1
 196 700 l 1
 546 700 l 1
 546 800 l 1
 196 800 l 1
 96 800 l 1x40
EndSplineSet
Validated: 41
EndChar

StartChar: F
Encoding: 70 70 37
Width: 603
GlyphClass: 2
Flags: MW
HStem: 386.625 100.031<440.75 440.75> 443.625 104.531
LayerCount: 2
Fore
SplineSet
96 800 m 1x40
 96 700 l 1
 96 0 l 1
 196 0 l 1
 196 443.625 l 1x40
 222.002 449.016 246.234 449.394 264.188 443.219 c 0
 280.705 437.538 292.162 426.622 320.406 411.875 c 0
 347.511 397.722 385.804 386.59 440.75 386.625 c 1
 440.75 486.656 l 1x80
 398.042 486.41 381.742 492.688 366.719 500.531 c 0
 351.085 508.694 332.054 525.617 296.688 537.781 c 0
 277.296 544.451 257.969 547.506 239.094 548.062 c 0
 237.128 548.12 235.174 548.151 233.219 548.156 c 0
 220.533 548.19 208.087 547.133 196 545.344 c 1
 196 700 l 1
 546 700 l 1
 546 800 l 1
 196 800 l 1
 96 800 l 1x40
EndSplineSet
Validated: 41
EndChar

StartChar: G
Encoding: 71 71 38
Width: 734
GlyphClass: 2
Flags: MW
HStem: -21.5625 102.625<299.781 367.708 299.781 380.563> 193.375 100.031<653.838 653.838> 248.063 102.374<399.088 399.088> 718.875 102.656<333 333>
VStem: 55.5566 102.531
LayerCount: 2
Fore
SplineSet
333.744 821.562 m 1xb8
 333.244 821.531 l 1
 272.222 820.946 220.923 787.938 185.306 745.219 c 0
 149.689 702.501 125.451 649.508 106.994 594.438 c 0
 70.3008 484.956 57.4268 367.389 55.6191 304.062 c 1
 55.5879 304.062 l 2
 55.5674 303.645 55.5771 303.23 55.5566 302.812 c 0
 51.5088 219.155 69.3057 139.377 116.026 78.125 c 0
 162.979 16.5674 240.105 -21.5625 333.744 -21.5625 c 0
 427.383 -21.5625 504.479 16.5674 551.432 78.125 c 0
 577.774 112.66 594.904 153.1 604.119 196.781 c 1
 618.966 194.603 635.477 193.363 653.838 193.375 c 1
 653.838 293.406 l 1xd8
 611.13 293.16 594.83 299.438 579.807 307.281 c 0
 564.173 315.444 545.143 332.367 509.776 344.531 c 0
 490.385 351.201 471.057 354.256 452.182 354.812 c 0
 450.216 354.871 448.262 354.902 446.307 354.907 c 0
 430.093 354.95 414.268 353.209 399.088 350.438 c 1
 399.088 248.063 l 1
 428.83 255.547 457.036 256.93 477.276 249.969 c 0
 487.248 246.539 495.436 241.187 506.526 234.25 c 1
 500.864 196.449 488.147 164.379 469.838 140.375 c 0
 441.825 103.649 401.672 81.0625 333.744 81.0625 c 0
 265.817 81.0625 225.664 103.649 197.651 140.375 c 0
 169.638 177.102 154.716 232.682 158.088 298.844 c 2
 158.119 299.469 l 1
 158.15 300.062 l 1
 159.524 351.466 172.393 466.593 204.306 561.812 c 0
 220.263 609.423 241.229 652.045 264.119 679.5 c 0
 286.863 706.779 307.312 718.475 333.744 718.875 c 0
 360.177 718.475 380.593 706.779 403.338 679.5 c 0
 410.622 670.763 417.73 660.482 424.525 649 c 1
 513.306 700.875 l 1
 503.992 716.541 493.687 731.421 482.181 745.219 c 0
 446.565 787.938 395.265 820.946 334.244 821.532 c 1
 333.744 821.562 l 1xb8
EndSplineSet
Validated: 41
EndChar

StartChar: H
Encoding: 72 72 39
Width: 695
GlyphClass: 2
Flags: W
LayerCount: 2
Fore
SplineSet
498.532 800 m 1
 498.532 547.562 l 1
 196 547.562 l 1
 196 797.625 l 1
 96 797.625 l 1
 96 -2.375 l 1
 196 -2.375 l 1
 196 447.562 l 1
 498.532 447.562 l 1
 498.532 0 l 1
 598.532 0 l 1
 598.532 800 l 1
 498.532 800 l 1
EndSplineSet
Validated: 9
EndChar

StartChar: I
Encoding: 73 73 40
Width: 291
GlyphClass: 2
Flags: MW
VStem: 96.6562 97.5
LayerCount: 2
Fore
SplineSet
194.156 800 m 1
 96 799.906 l 1
 96.6562 -0.09375 l 1
 194.812 0 l 1
 194.156 800 l 1
EndSplineSet
Validated: 9
EndChar

StartChar: J
Encoding: 74 74 41
Width: 442
GlyphClass: 2
Flags: MW
HStem: -0.229492 100<151 151>
VStem: 245.686 100.002<289 289>
LayerCount: 2
Fore
SplineSet
345.686 800.145 m 1
 245.686 799.895 l 1
 245.686 799.895 246.322 518.787 245.686 289.739 c 0
 245.526 232.738 241.812 158.734 219.218 129.989 c 0
 206.861 114.269 175.034 99.7061 151.468 99.7705 c 0
 121.516 99.8506 82.8125 117.512 67.5303 137.676 c 0
 53.4727 156.223 50.5078 165.951 48.3428 188.301 c 0
 48.1826 189.926 48.0576 191.643 47.9375 193.395 c 1
 -50 168.739 l 1
 -45.5059 137.574 -33.8564 105.901 -12.1562 77.2705 c 0
 27.4971 24.9531 90.1914 -0.0625 151.188 -0.229492 c 0
 206.295 -0.379883 261.581 22.0752 297.844 68.208 c 0
 355.216 141.194 345.54 236.346 345.688 289.458 c 0
 346.325 518.918 345.686 800.145 345.686 800.145 c 1
EndSplineSet
Validated: 41
EndChar

StartChar: K
Encoding: 75 75 42
Width: 551
GlyphClass: 2
Flags: MW
VStem: 471 99.5938<749.009 798.375>
LayerCount: 2
Fore
SplineSet
195.594 798.406 m 1
 96 798.375 l 1
 96.1875 -0.03125 l 1
 195.781 0 l 1
 195.719 226.125 l 1
 210.162 238.285 228.783 251.747 249.844 266.344 c 1
 421.125 -1.625 l 1
 556.531 -1.625 l 1
 343.969 330.906 l 1
 406.801 375.142 472.203 426.795 513.188 497.531 c 0
 567.954 592.054 570.594 697.106 570.594 798.375 c 1
 471 798.375 l 1
 471 699.644 465.99 614.731 427 547.438 c 0
 398.376 498.034 342.054 451.069 281.156 408.5 c 0
 252.529 388.488 223.368 369.764 195.688 350.812 c 1
 195.594 798.406 l 1
EndSplineSet
Validated: 9
EndChar

StartChar: L
Encoding: 76 76 43
Width: 553
GlyphClass: 2
Flags: W
LayerCount: 2
Fore
SplineSet
96 800 m 1
 96 0 l 1
 99.2178 0 l 1
 99.2178 -2.21875 l 1
 549.218 -2.21875 l 1
 549.218 97.7812 l 1
 196 97.7812 l 1
 196 800 l 1
 96 800 l 1
EndSplineSet
Validated: 9
EndChar

StartChar: M
Encoding: 77 77 44
Width: 969
GlyphClass: 2
Flags: MW
HStem: -19.8203 20G<872.877 872.877> -19.8203 20G<872.877 872.877> 0.160156 21G<872.877 872.877> 0.160156 21G<872.877 872.877>
LayerCount: 2
Fore
SplineSet
872.877 0.160156 m 1x20
 740.205 799.927 l 1
 555.362 799.596 l 1
 484.254 367.282 l 1
 412.486 799.843 l 1
 227.642 799.513 l 1
 96 -0.72168 l 1
 197.374 -0.541992 l 1
 312.539 699.664 l 1
 327.726 699.878 l 1
 440.598 49.8906 l 1
 531.098 50.0508 l 1
 640.258 699.745 l 1
 655.445 699.795 l 1
 771.531 0 l 1
 872.877 0.179688 l 1x80
 872.877 0.160156 l 1x20
EndSplineSet
Validated: 5
EndChar

StartChar: N
Encoding: 78 78 45
Width: 642
GlyphClass: 2
Flags: W
LayerCount: 2
Fore
SplineSet
96 800 m 1
 96 0 l 1
 196 0 l 1
 196 596.094 l 1
 238.943 560.096 285.279 538.704 324.812 523.156 c 0
 361.794 508.612 393.104 497.288 412.875 484.812 c 0
 431.093 473.317 440.071 464.387 446 444.343 c 1
 446 0 l 1
 546 0 l 1
 546 800 l 1
 446 800 l 1
 446 580.938 l 1
 417.881 595.62 389.073 605.349 361.438 616.219 c 0
 295.925 641.984 238.11 667.475 196 755.656 c 1
 196 800 l 1
 96 800 l 1
EndSplineSet
Validated: 9
EndChar

StartChar: O
Encoding: 79 79 46
Width: 667
GlyphClass: 2
Flags: MW
HStem: -21.5625 102.656<333 333 334 334> 718.938 102.625<299.751 367.679>
VStem: 55.5908 102.53 509.309 102.532
LayerCount: 2
Fore
SplineSet
333.716 821.562 m 0
 240.076 821.562 162.981 783.433 116.027 721.875 c 0
 69.3018 660.615 51.5049 580.826 55.5586 497.156 c 1
 55.5273 497.156 l 2
 55.5371 496.788 55.5801 496.309 55.5908 495.938 c 0
 57.3955 432.618 70.2988 315.059 106.996 205.562 c 0
 125.453 150.492 149.66 97.4678 185.277 54.75 c 0
 220.895 12.0322 272.193 -20.9766 333.216 -21.5625 c 2
 333.716 -21.5625 l 1
 334.216 -21.5625 l 2
 395.236 -20.9766 446.535 12.0322 482.152 54.75 c 0
 517.77 97.4678 541.978 150.492 560.434 205.562 c 0
 597.133 315.059 610.035 432.618 611.841 495.938 c 0
 611.851 496.309 611.893 496.788 611.902 497.156 c 2
 611.871 497.156 l 1
 615.926 580.826 598.159 660.615 551.434 721.875 c 0
 504.48 783.433 427.354 821.562 333.716 821.562 c 0
333.716 718.938 m 0
 401.643 718.938 441.796 696.351 469.809 659.625 c 0
 497.822 622.899 512.743 567.318 509.371 501.156 c 1
 509.309 500.531 l 1
 509.309 499.906 l 1
 507.936 448.503 495.034 333.376 463.121 238.156 c 0
 447.164 190.546 426.231 147.923 403.341 120.469 c 0
 380.596 93.1904 360.148 81.4941 333.716 81.0938 c 0
 307.282 81.4941 286.865 93.1904 264.121 120.469 c 0
 241.23 147.923 220.266 190.546 204.309 238.156 c 0
 172.396 333.376 159.494 448.503 158.121 499.906 c 1
 158.121 500.531 l 1
 158.091 501.156 l 2
 154.718 567.318 169.608 622.899 197.621 659.625 c 0
 225.635 696.351 265.787 718.938 333.716 718.938 c 0
EndSplineSet
Validated: 41
EndChar

StartChar: P
Encoding: 80 80 47
Width: 579
GlyphClass: 2
Flags: MW
HStem: 699.594 100<196.375 383.688>
LayerCount: 2
Fore
SplineSet
96.4385 799.594 m 1
 96.4062 749.625 l 1
 96 0.03125 l 1
 196 -0.03125 l 1
 196.125 226.813 l 1
 229.116 253.325 287.654 287.832 346.032 326.75 c 0
 414.095 372.126 485.587 425.389 517.844 506.032 c 0
 545.619 575.469 556.083 641.895 535.812 700.344 c 0
 515.543 758.793 454.83 799.594 383.688 799.594 c 2
 146.407 799.594 l 1
 96.4385 799.594 l 1
196.375 699.594 m 1
 383.688 699.594 l 2
 425.255 699.594 433.405 690.395 441.313 667.594 c 0
 449.22 644.793 447.194 598.719 424.969 543.156 c 0
 407.226 498.799 353.718 452.062 290.532 409.938 c 0
 259.384 389.172 226.865 370.018 196.188 350.25 c 1
 196.375 699.594 l 1
EndSplineSet
Validated: 41
EndChar

StartChar: Q
Encoding: 81 81 48
Width: 689
GlyphClass: 2
Flags: MW
HStem: -21.7812 102.656<333 333 334 334> 718.719 102.625<299.75 367.677>
VStem: 55.5879 102.563<495.719 499.688> 509.307 102.562<495.719 499.688>
LayerCount: 2
Fore
SplineSet
333.713 821.344 m 0
 240.074 821.344 162.979 783.214 116.025 721.656 c 0
 69.3047 660.404 51.5088 580.627 55.5566 496.969 c 0
 55.5771 496.551 55.5674 496.137 55.5879 495.719 c 2
 55.6191 495.719 l 1
 57.4268 432.392 70.3008 314.825 106.994 205.344 c 0
 125.451 150.274 149.69 97.249 185.307 54.5312 c 0
 220.924 11.8135 272.223 -21.1953 333.244 -21.7812 c 2
 333.713 -21.7812 l 1
 334.213 -21.7812 l 2
 389.811 -21.248 437.327 6.19141 472.275 43.375 c 1
 507.338 -2.0625 l 1
 633.65 -2.0625 l 1
 530.713 131.313 l 1
 542.223 155.015 551.957 179.963 560.463 205.344 c 0
 597.156 314.825 610.03 432.392 611.838 495.719 c 1
 611.869 495.719 l 2
 611.891 496.137 611.88 496.551 611.9 496.969 c 0
 615.948 580.627 598.151 660.404 551.432 721.656 c 0
 504.479 783.214 427.353 821.344 333.713 821.344 c 0
333.713 718.719 m 0
 401.641 718.719 441.825 696.133 469.838 659.406 c 0
 497.852 622.68 512.742 567.099 509.369 500.938 c 2
 509.338 500.312 l 1
 509.307 499.688 l 1
 507.935 448.285 495.064 333.157 463.151 237.938 c 0
 461.668 233.512 460.124 229.144 458.557 224.813 c 1
 426.557 266.281 l 1
 376.901 166.969 l 1
 408.213 126.375 l 1
 406.598 124.262 404.974 122.212 403.338 120.25 c 0
 380.595 92.9717 360.177 81.2754 333.745 80.875 c 0
 307.297 81.2666 286.873 92.9609 264.12 120.25 c 0
 241.229 147.705 220.264 190.328 204.307 237.938 c 0
 172.395 333.157 159.524 448.285 158.151 499.688 c 1
 158.12 500.312 l 1
 158.088 500.938 l 2
 154.716 567.099 169.606 622.68 197.62 659.406 c 0
 225.633 696.133 265.786 718.719 333.713 718.719 c 0
EndSplineSet
Validated: 41
EndChar

StartChar: R
Encoding: 82 82 49
Width: 584
GlyphClass: 2
Flags: MW
HStem: 699.562 100<196.375 383.688>
LayerCount: 2
Fore
SplineSet
96.4375 799.562 m 1
 96.4062 749.594 l 1
 96 0 l 1
 196 -0.0634766 l 1
 196.125 226.781 l 1
 210.261 238.141 229.1 250.987 250.594 265 c 1
 420.938 -0.03125 l 1
 557.188 -0.03125 l 1
 346.844 327.25 l 1
 414.665 372.509 485.714 425.675 517.844 506 c 0
 545.619 575.438 556.083 641.895 535.812 700.344 c 0
 515.543 758.793 454.83 799.562 383.688 799.562 c 2
 146.406 799.562 l 1
 96.4375 799.562 l 1
196.375 699.562 m 1
 383.688 699.562 l 2
 425.256 699.562 433.438 690.364 441.344 667.562 c 0
 449.251 644.761 447.226 598.719 425 543.156 c 0
 407.257 498.799 353.75 452.062 290.562 409.938 c 0
 259.415 389.172 226.865 369.987 196.188 350.219 c 1
 196.375 699.562 l 1
EndSplineSet
Validated: 41
EndChar

StartChar: S
Encoding: 83 83 50
Width: 570
GlyphClass: 2
Flags: MW
HStem: -90.1123 100.312<65 65> 708.699 100.438<515 515>
LayerCount: 2
Fore
SplineSet
515 809.137 m 1
 458.326 804.975 376.651 781.442 317.969 703.856 c 0
 267.299 636.864 246.19 543.488 236.688 387.918 c 0
 227.857 243.347 224.047 151.999 203.906 104.981 c 0
 179.714 48.5049 152.158 29.915 123.844 19.543 c 0
 104.838 12.5811 84.8701 10.751 65 10.2002 c 1
 65 -90.1123 l 1
 89.7422 -89.7227 123.13 -87.2168 158.219 -74.3623 c 0
 209.318 -55.6436 262.651 -11.8096 295.812 65.6055 c 0
 329.642 144.579 327.801 239.419 336.5 381.824 c 0
 345.575 530.393 366.698 602.53 397.719 643.543 c 0
 432.077 688.97 480.792 704.63 515 708.699 c 1
 515 809.137 l 1
EndSplineSet
Validated: 9
EndChar

StartChar: T
Encoding: 84 84 51
Width: 498
GlyphClass: 2
Flags: W
LayerCount: 2
Fore
SplineSet
500.5 801.154 m 1
 -2 800.092 l 1
 -1.78027 699.404 l 1
 200.688 699.844 l 1
 201.22 0 l 1
 299.407 0.0947266 l 1
 298.845 700.033 l 1
 500.72 700.473 l 1
 500.5 801.154 l 1
EndSplineSet
Validated: 9
EndChar

StartChar: U
Encoding: 85 85 52
Width: 570
GlyphClass: 2
Flags: MW
HStem: -0.53125 100<290 290>
VStem: 88.0254 99.5312 384.932 100<289.406 799.594>
LayerCount: 2
Fore
SplineSet
85.8066 801.719 m 1
 85.8066 801.719 83.7109 486.309 86.2754 293.031 c 0
 86.8926 246.513 84.7002 212.657 88.0254 178.344 c 0
 91.3496 144.03 103.047 108.615 127.057 76.9375 c 0
 166.709 24.6201 229.404 -0.364258 290.4 -0.53125 c 0
 345.512 -0.685547 400.794 21.7432 437.057 67.875 c 0
 494.428 140.862 484.783 236.014 484.932 289.125 c 0
 485.568 518.586 484.932 799.812 484.932 799.812 c 1
 384.932 799.594 l 1
 384.932 799.594 385.567 518.455 384.932 289.406 c 0
 384.773 232.406 381.058 158.401 358.462 129.656 c 0
 346.105 113.936 314.243 99.4033 290.682 99.4688 c 0
 260.73 99.5508 222.059 117.179 206.775 137.344 c 0
 192.719 155.89 189.723 165.649 187.557 188 c 0
 185.391 210.351 186.903 244.632 186.243 294.344 c 0
 183.709 485.448 185.807 801.031 185.807 801.031 c 1
 85.8066 801.719 l 1
EndSplineSet
Validated: 41
EndChar

StartChar: V
Encoding: 86 86 53
Width: 463
GlyphClass: 2
Flags: W
LayerCount: 2
Fore
SplineSet
7 800 m 1
 138.25 0 l 1
 323.094 0 l 1
 456.156 800 l 1
 354.781 800 l 1
 238.375 100 l 1
 223.188 100 l 1
 108.344 800 l 1
 7 800 l 1
EndSplineSet
Validated: 9
EndChar

StartChar: W
Encoding: 87 87 54
Width: 841
GlyphClass: 2
Flags: W
LayerCount: 2
Fore
SplineSet
32 800.5 m 1
 163.25 0.5 l 1
 348.094 0.5 l 1
 419.969 432.688 l 1
 490.969 0 l 1
 675.812 0 l 1
 808.878 800 l 1
 707.5 800 l 1
 591.094 100 l 1
 575.907 99.8154 l 1
 464.188 750.003 l 1
 373.688 750.003 l 1
 263.376 100.503 l 1
 248.188 100.503 l 1
 133.344 800.503 l 1
 32 800.5 l 1
EndSplineSet
Validated: 9
EndChar

StartChar: X
Encoding: 88 88 55
Width: 646
GlyphClass: 2
Flags: W
LayerCount: 2
Fore
SplineSet
99.0928 800 m 1
 245.375 475.688 l 1
 29 -4.03125 l 1
 138.688 -4.03125 l 1
 322.343 403.125 l 1
 506 -4.03125 l 1
 615.718 -4.03125 l 1
 399.343 475.688 l 1
 545.625 800 l 1
 435.938 800 l 1
 322.375 548.25 l 1
 208.812 800 l 1
 99.0928 800 l 1
EndSplineSet
Validated: 9
EndChar

StartChar: Y
Encoding: 89 89 56
Width: 581
GlyphClass: 2
Flags: MW
HStem: 705.25 94.75<-2 -2>
LayerCount: 2
Fore
SplineSet
-2 800 m 1
 -2 705.25 l 1
 16.8242 704.729 35.7441 702.983 53.75 696.406 c 0
 80.5732 686.609 106.675 669.067 129.593 615.719 c 0
 148.674 571.304 152.29 485.003 160.656 348.438 c 0
 162.207 323.121 164.083 299.56 166.375 277.562 c 1
 6.125 0 l 1
 121.593 0 l 1
 583.468 800 l 1
 468 800 l 1
 251.375 424.781 l 1
 246.465 521.286 242.702 592.277 216.656 652.906 c 0
 185.24 726.034 134.721 767.443 86.3125 785.125 c 0
 53.0713 797.267 21.4395 799.63 -2 800 c 1
EndSplineSet
Validated: 9
EndChar

StartChar: Z
Encoding: 90 90 57
Width: 538
GlyphClass: 2
Flags: MW
HStem: 387.448 100.03<438.219 438.219> 448.263 100.719
LayerCount: 2
Fore
SplineSet
430.875 795.95 m 1x80
 430.625 795.48 l 1
 63.7822 795.48 l 1
 63.7822 695.48 l 1
 375.532 695.48 l 1
 289.844 540.011 l 1
 271.906 545.693 254.034 548.371 236.562 548.886 c 0
 234.597 548.946 232.644 548.976 230.688 548.981 c 0
 214.474 549.031 198.649 547.284 183.469 544.513 c 1
 183.469 442.138 l 1
 203.421 447.158 222.685 449.41 239.312 448.263 c 1x40
 44.9072 95.4814 l 1
 44.7822 95.4814 l 1
 44.7822 95.2314 l 1
 44 93.8252 l 1
 44.7822 93.3857 l 1
 44.7822 -4.52148 l 1
 494.782 -4.52148 l 1
 494.782 95.4785 l 1
 165.532 95.4785 l 1
 335.812 404.51 l 1
 361.217 394.472 394.418 387.42 438.219 387.448 c 1
 438.219 487.479 l 1
 412.654 487.334 396.594 489.514 384.562 492.979 c 1
 494.782 693.01 l 1
 494.782 760.729 l 1
 494.782 795.479 l 1
 431.719 795.479 l 1
 430.875 795.95 l 1x80
EndSplineSet
Validated: 41
EndChar

StartChar: backslash
Encoding: 92 92 58
Width: 577
GlyphClass: 2
Flags: MW
HStem: 0 21G<461.875 577.344 461.875 461.875> 0 21G<461.875 577.344 461.875 461.875> 780 20G<0 115.469 115.469 115.469> 780 20G<0 115.469 115.469 115.469>
LayerCount: 2
Fore
SplineSet
115.469 800 m 1xa0
 577.344 0 l 1
 461.875 0 l 1
 0 800 l 1
 115.469 800 l 1xa0
EndSplineSet
Validated: 1
EndChar

StartChar: asciicircum
Encoding: 94 94 59
Width: 647
GlyphClass: 2
Flags: HMW
HStem: 849.969 100<105 105 105 143 105 143>
VStem: 104 39<849.969 849.969> 343.281 35.7188<849.969 947.969>
LayerCount: 2
Fore
SplineSet
192 911.969 m 1
 191 811.969 l 1
 230 811.969 l 1
 239.031 861.969 l 1
 422.718 861.312 l 1
 430.281 811.969 l 1
 466 811.969 l 1
 466 909.969 l 1
 192 911.969 l 1
EndSplineSet
Validated: 9
EndChar

StartChar: underscore
Encoding: 95 95 60
Width: 405
GlyphClass: 2
Flags: MW
HStem: -100 100<-9 414.802 -9 414.802>
LayerCount: 2
Fore
SplineSet
-9 0 m 1
 414.802 0 l 1
 414.802 -100 l 1
 -9 -100 l 1
 -9 0 l 1
EndSplineSet
Validated: 1
EndChar

StartChar: grave
Encoding: 96 96 61
Width: 382
GlyphClass: 2
Flags: MW
HStem: 849.082 125<100.281 182.219 81 201.531 81 201.531>
LayerCount: 2
Fore
SplineSet
81 974.082 m 1
 87.4316 932.416 93.8457 890.748 100.281 849.082 c 1
 201.531 849.082 l 1
 182.219 974.082 l 1
 81 974.082 l 1
EndSplineSet
Validated: 1
EndChar

StartChar: a
Encoding: 97 97 62
Width: 601
GlyphClass: 2
Flags: W
LayerCount: 2
Fore
SplineSet
204.062 800.656 m 1
 59 0.03125 l 1
 158.657 0.03125 l 1
 167.844 50.0312 l 1
 402.844 50.0312 l 1
 410.562 0.03125 l 1
 511.782 0.03125 l 1
 388.562 800 l 1
 204.062 800.656 l 1
287.157 699.469 m 1
 302.594 699.219 l 1
 330.856 516.155 359.139 333.094 387.407 150.031 c 1
 186.219 150.031 l 1
 219.864 333.177 253.507 516.323 287.157 699.469 c 1
EndSplineSet
Validated: 9
EndChar

StartChar: b
Encoding: 98 98 63
Width: 689
GlyphClass: 2
Flags: MW
HStem: 4.625 100<163.75 313.749 163.75 313.749> 700.531 99.4688<188.843 188.843 188.843 375.188>
VStem: 89 99.6865 532.749 102.626<246.255 314.183>
LayerCount: 2
Fore
SplineSet
89.4365 800 m 1
 139.157 800 l 1
 375.188 800 l 2
 445.954 800 506.337 759.422 526.5 701.281 c 0
 546.031 644.966 536.858 581.216 511.157 514.5 c 1
 519.618 509.433 527.808 503.917 535.688 497.906 c 0
 597.246 450.953 635.375 373.857 635.375 280.219 c 0
 635.375 186.579 597.246 109.453 535.688 62.5 c 0
 474.901 16.1348 395.87 -1.71875 312.907 1.96875 c 1
 312.907 1.9375 l 1
 232.326 1.9375 188.5 4.625 188.5 4.625 c 1
 163.75 4.625 l 1
 89 4.65625 l 1
 89.4072 750.312 l 1
 89.4365 800 l 1
188.843 700.531 m 1
 188.687 353.031 l 1
 219.199 372.693 251.549 391.783 282.53 412.438 c 0
 345.384 454.34 398.6 500.814 416.249 544.938 c 0
 438.357 600.207 440.396 646.038 432.53 668.719 c 0
 424.665 691.399 416.535 700.531 375.188 700.531 c 2
 188.843 700.531 l 1
457.28 427.062 m 1
 422.825 388.523 379.613 357.588 337.715 329.656 c 0
 279.654 290.949 221.441 256.651 188.622 230.281 c 1
 188.562 104.625 l 1
 313.749 104.625 l 1
 338.749 104.625 l 1
 338.624 104.156 l 1
 394.374 105.034 441.175 119.518 473.438 144.125 c 0
 510.163 172.138 532.749 212.291 532.749 280.219 c 0
 532.749 348.146 510.163 388.3 473.438 416.312 c 0
 468.405 420.15 462.998 423.73 457.28 427.062 c 1
EndSplineSet
Validated: 33
EndChar

StartChar: c
Encoding: 99 99 64
Width: 557
GlyphClass: 2
Flags: MW
HStem: -8.9375 100<284.75 330.251 284.75 340.725> 715 100<284.751 330.25>
VStem: 54 100<333.448 472.614 333.448 477.869>
LayerCount: 2
Fore
SplineSet
307.407 815 m 0
 374.042 815 446.521 789 492.531 721.406 c 0
 492.977 720.751 493.403 720.067 493.844 719.406 c 2
 412.157 661.625 l 1
 411.397 662.815 410.642 663.998 409.875 665.125 c 0
 382.276 705.67 353.094 715 307.407 715 c 0
 262.095 715 232.741 705.305 205 664.312 c 0
 177.26 623.32 154 542.197 154 403.031 c 0
 154 263.865 177.26 182.742 205 141.75 c 0
 232.741 100.758 262.094 91.0625 307.407 91.0625 c 0
 353.095 91.0625 382.276 100.361 409.875 140.906 c 0
 411.471 143.251 413.061 145.724 414.625 148.344 c 1
 496.438 90.5 l 1
 495.157 88.5068 493.851 86.5645 492.531 84.625 c 0
 446.521 17.0312 374.042 -8.9375 307.407 -8.9375 c 0
 240.393 -8.9375 168.057 17.9062 122.188 85.6875 c 0
 76.3184 153.469 54 253.357 54 403.031 c 0
 54 552.706 76.3184 652.562 122.188 720.344 c 0
 168.057 788.125 240.394 815 307.407 815 c 0
EndSplineSet
Validated: 1
EndChar

StartChar: d
Encoding: 100 100 65
Width: 630
GlyphClass: 2
Flags: MW
HStem: 1.09375 98.3125<154 154> 702.062 98.3125
LayerCount: 2
Fore
SplineSet
227.125 800.375 m 0
 200.868 800.081 177.973 799.812 154 799.531 c 1
 154 800 l 1
 54 800 l 1
 54 0 l 1
 154 0 l 1
 154 1.09375 l 1
 231.428 1.17969 336.564 1.52637 390.375 2.75 c 0
 446.131 4.01855 492.492 27.3125 517.188 63.5312 c 0
 541.883 99.75 544.766 142.155 536.688 178.688 c 0
 525.982 227.1 518.197 290.209 475.625 465.312 c 0
 432.742 641.699 405.068 712.964 367.812 754.344 c 1
 368.116 754.007 350.896 774.463 327.156 784.938 c 0
 303.415 795.412 272.597 800.885 227.125 800.375 c 0
228.219 702.062 m 0
 264.886 702.474 281.917 697.449 287.469 695 c 0
 293.02 692.551 286.51 697.649 294.719 688.531 c 0
 302.948 679.391 338.43 613.303 380.062 442.062 c 0
 422.007 269.54 428.389 213.058 440.688 157.438 c 0
 444.112 141.953 441.635 127.293 435.938 118.938 c 0
 430.24 110.582 421.148 101.783 388.125 101.031 c 0
 336.748 99.8623 231.595 99.501 154 99.4062 c 1
 154 701.188 l 1
 178.251 701.479 201.568 701.764 228.219 702.062 c 0
EndSplineSet
Validated: 41
EndChar

StartChar: e
Encoding: 101 101 66
Width: 519
GlyphClass: 2
Flags: MW
HStem: 2.78125 100<54 301.969 57.25 301.969 154 301.969> 417.562 99.9688<381 383.469> 479.969 99.8438<154 154> 705 100<154 467.25 154 154>
VStem: 54 100<102.781 479.969 579.812 705>
LayerCount: 2
Fore
SplineSet
57.25 805 m 1xb8
 467.25 805 l 1
 467.25 705 l 1
 154 705 l 1
 154 579.812 l 1xb8
 156.625 579.939 159.22 580.054 161.781 580.094 c 0
 215.545 580.959 255.27 563.159 281.875 547.688 c 0
 314.619 528.645 328.733 516.229 381 517.531 c 1
 383.469 417.562 l 1xd8
 308.899 415.703 261.001 444.166 231.625 461.25 c 0
 205.127 476.66 194.711 485.265 154 479.969 c 1
 154 102.781 l 1
 301.969 102.781 l 1
 301.969 2.78125 l 1
 154 2.78125 l 1
 57.25 2.78125 l 1
 54 2.78125 l 1
 54 802.781 l 1
 57.25 802.781 l 1
 57.25 805 l 1xb8
EndSplineSet
Validated: 33
EndChar

StartChar: f
Encoding: 102 102 67
Width: 453
GlyphClass: 2
Flags: MW
HStem: 386.625 100.031<366.75 366.75> 443.625 104.531
LayerCount: 2
Fore
SplineSet
22 800 m 1x40
 22 700 l 1
 22 0 l 1
 122 0 l 1
 122 443.625 l 1x40
 148.002 449.016 172.234 449.394 190.188 443.219 c 0
 206.705 437.538 218.162 426.622 246.406 411.875 c 0
 273.511 397.722 311.804 386.59 366.75 386.625 c 1
 366.75 486.656 l 1x80
 324.042 486.41 307.742 492.688 292.719 500.531 c 0
 277.085 508.694 258.054 525.617 222.688 537.781 c 0
 203.296 544.451 183.969 547.506 165.094 548.062 c 0
 163.128 548.12 161.174 548.151 159.219 548.156 c 0
 146.533 548.19 134.087 547.133 122 545.344 c 1
 122 700 l 1
 472 700 l 1
 472 800 l 1
 122 800 l 1
 22 800 l 1x40
EndSplineSet
Validated: 41
EndChar

StartChar: g
Encoding: 103 103 68
Width: 742
GlyphClass: 2
Flags: MW
HStem: -21.5625 102.625<298.781 366.708 298.781 379.563> 193.375 100.031<652.838 652.838> 248.063 102.374<398.088 398.088> 718.875 102.656<332 332>
VStem: 54.5566 102.531
LayerCount: 2
Fore
SplineSet
332.744 821.562 m 1xb8
 332.244 821.531 l 1
 271.222 820.946 219.923 787.938 184.306 745.219 c 0
 148.689 702.501 124.451 649.508 105.994 594.438 c 0
 69.3008 484.956 56.4268 367.389 54.6191 304.062 c 1
 54.5879 304.062 l 2
 54.5674 303.645 54.5771 303.23 54.5566 302.812 c 0
 50.5088 219.155 68.3057 139.377 115.026 78.125 c 0
 161.979 16.5674 239.105 -21.5625 332.744 -21.5625 c 0
 426.383 -21.5625 503.479 16.5674 550.432 78.125 c 0
 576.774 112.66 593.904 153.1 603.119 196.781 c 1
 617.966 194.603 634.477 193.363 652.838 193.375 c 1
 652.838 293.406 l 1xd8
 610.13 293.16 593.83 299.438 578.807 307.281 c 0
 563.173 315.444 544.143 332.367 508.776 344.531 c 0
 489.385 351.201 470.057 354.256 451.182 354.812 c 0
 449.216 354.871 447.262 354.902 445.307 354.907 c 0
 429.093 354.95 413.268 353.209 398.088 350.438 c 1
 398.088 248.063 l 1
 427.83 255.547 456.036 256.93 476.276 249.969 c 0
 486.248 246.539 494.436 241.187 505.526 234.25 c 1
 499.864 196.449 487.147 164.379 468.838 140.375 c 0
 440.825 103.649 400.672 81.0625 332.744 81.0625 c 0
 264.817 81.0625 224.664 103.649 196.651 140.375 c 0
 168.638 177.102 153.716 232.682 157.088 298.844 c 2
 157.119 299.469 l 1
 157.15 300.062 l 1
 158.524 351.466 171.393 466.593 203.306 561.812 c 0
 219.263 609.423 240.229 652.045 263.119 679.5 c 0
 285.863 706.779 306.312 718.475 332.744 718.875 c 0
 359.177 718.475 379.593 706.779 402.338 679.5 c 0
 409.622 670.763 416.73 660.482 423.525 649 c 1
 512.306 700.875 l 1
 502.992 716.541 492.687 731.421 481.181 745.219 c 0
 445.565 787.938 394.265 820.946 333.244 821.532 c 1
 332.744 821.562 l 1xb8
EndSplineSet
Validated: 41
EndChar

StartChar: h
Encoding: 104 104 69
Width: 675
GlyphClass: 2
Flags: W
LayerCount: 2
Fore
SplineSet
491.532 800 m 1
 491.532 547.562 l 1
 189 547.562 l 1
 189 797.625 l 1
 89 797.625 l 1
 89 -2.375 l 1
 189 -2.375 l 1
 189 447.562 l 1
 491.532 447.562 l 1
 491.532 0 l 1
 591.532 0 l 1
 591.532 800 l 1
 491.532 800 l 1
EndSplineSet
Validated: 9
EndChar

StartChar: i
Encoding: 105 105 70
Width: 284
GlyphClass: 2
Flags: MW
VStem: 93.6562 97.5
LayerCount: 2
Fore
SplineSet
191.156 800 m 1
 93 799.906 l 1
 93.6562 -0.09375 l 1
 191.812 0 l 1
 191.156 800 l 1
EndSplineSet
Validated: 9
EndChar

StartChar: j
Encoding: 106 106 71
Width: 471
GlyphClass: 2
Flags: MW
HStem: -0.229492 100<184 184>
VStem: 278.686 100.002<289 289>
LayerCount: 2
Fore
SplineSet
378.686 800.145 m 1
 278.686 799.895 l 1
 278.686 799.895 279.322 518.787 278.686 289.739 c 0
 278.526 232.738 274.812 158.734 252.218 129.989 c 0
 239.861 114.269 208.034 99.7061 184.468 99.7705 c 0
 154.516 99.8506 115.812 117.512 100.53 137.676 c 0
 86.4727 156.223 83.5078 165.951 81.3428 188.301 c 0
 81.1826 189.926 81.0576 191.643 80.9375 193.395 c 1
 -17 168.739 l 1
 -12.5059 137.574 -0.856445 105.901 20.8438 77.2705 c 0
 60.4971 24.9531 123.191 -0.0625 184.188 -0.229492 c 0
 239.295 -0.379883 294.581 22.0752 330.844 68.208 c 0
 388.216 141.194 378.54 236.346 378.688 289.458 c 0
 379.325 518.918 378.686 800.145 378.686 800.145 c 1
EndSplineSet
Validated: 41
EndChar

StartChar: k
Encoding: 107 107 72
Width: 552
GlyphClass: 2
Flags: MW
HStem: 784 20G<188.593 188.593> 784 20G<188.593 188.593>
VStem: 89.1865 99.5029 400.408 86.0625
LayerCount: 2
Fore
SplineSet
188.593 804 m 1xb0
 188.689 339.312 l 1
 268.647 399.226 318.304 443.066 348.877 483.156 c 0
 389 535.771 399.058 573.747 400.408 602 c 0
 401.758 630.252 394.333 648.966 387.877 670.281 c 1
 470.345 695.25 l 1
 474.812 680.504 488.694 644.428 486.471 597.875 c 0
 484.246 551.322 465.85 494.43 417.408 430.906 c 0
 395.126 401.688 367.538 373.577 332.595 343.375 c 1
 549.533 3.96875 l 1
 414.127 3.96875 l 1
 242.752 272.062 l 1
 225.901 259.465 207.965 246.346 188.721 232.438 c 1
 188.781 5.625 l 1
 89.1865 5.59375 l 1
 89 803.969 l 1
 188.593 804 l 1xb0
EndSplineSet
Validated: 33
EndChar

StartChar: l
Encoding: 108 108 73
Width: 638
GlyphClass: 2
Flags: W
LayerCount: 2
Fore
SplineSet
93 800 m 1
 93 0 l 1
 96.2178 0 l 1
 96.2178 -2.21875 l 1
 546.218 -2.21875 l 1
 546.218 97.7812 l 1
 193 97.7812 l 1
 193 800 l 1
 93 800 l 1
EndSplineSet
Validated: 9
EndChar

StartChar: m
Encoding: 109 109 74
Width: 949
GlyphClass: 2
Flags: MW
HStem: -19.8203 20G<865.877 865.877> -19.8203 20G<865.877 865.877> 0.160156 21G<865.877 865.877> 0.160156 21G<865.877 865.877>
LayerCount: 2
Fore
SplineSet
865.877 0.160156 m 1x20
 733.205 799.927 l 1
 548.362 799.596 l 1
 477.254 367.282 l 1
 405.486 799.843 l 1
 220.642 799.513 l 1
 89 -0.72168 l 1
 190.374 -0.541992 l 1
 305.539 699.664 l 1
 320.726 699.878 l 1
 433.598 49.8906 l 1
 524.098 50.0508 l 1
 633.258 699.745 l 1
 648.445 699.795 l 1
 764.531 0 l 1
 865.877 0.179688 l 1x80
 865.877 0.160156 l 1x20
EndSplineSet
Validated: 5
EndChar

StartChar: n
Encoding: 110 110 75
Width: 622
GlyphClass: 2
Flags: W
LayerCount: 2
Fore
SplineSet
89 800 m 1
 89 0 l 1
 189 0 l 1
 189 596.094 l 1
 231.943 560.096 278.279 538.704 317.812 523.156 c 0
 354.794 508.612 386.104 497.288 405.875 484.812 c 0
 424.093 473.317 433.071 464.387 439 444.343 c 1
 439 0 l 1
 539 0 l 1
 539 800 l 1
 439 800 l 1
 439 580.938 l 1
 410.881 595.62 382.073 605.349 354.438 616.219 c 0
 288.925 641.984 231.11 667.475 189 755.656 c 1
 189 800 l 1
 89 800 l 1
EndSplineSet
Validated: 9
EndChar

StartChar: o
Encoding: 111 111 76
Width: 614
GlyphClass: 2
Flags: MW
HStem: -8.9375 100<284.75 330.251 284.75 340.724> 715 100<284.75 330.25>
VStem: 54 100<333.448 472.614 333.448 477.868> 460.782 100<332.79 473.272>
LayerCount: 2
Fore
SplineSet
307.406 815 m 0
 374.043 815 446.52 789 492.532 721.406 c 0
 538.543 653.812 560.782 553.93 560.782 403.031 c 0
 560.782 252.132 538.543 152.25 492.532 84.6562 c 0
 446.52 17.0625 374.042 -8.9375 307.406 -8.9375 c 0
 240.394 -8.9375 168.057 17.9375 122.188 85.7188 c 0
 76.3184 153.5 54 253.356 54 403.031 c 0
 54 552.705 76.3184 652.562 122.188 720.344 c 0
 168.057 788.125 240.394 815 307.406 815 c 0
307.406 715 m 0
 262.095 715 232.741 705.305 205 664.312 c 0
 177.26 623.32 154 542.197 154 403.031 c 0
 154 263.865 177.26 182.742 205 141.75 c 0
 232.741 100.758 262.095 91.0625 307.406 91.0625 c 0
 353.096 91.0625 382.276 100.361 409.875 140.906 c 0
 437.474 181.451 460.782 262.549 460.782 403.031 c 0
 460.782 543.514 437.474 624.611 409.875 665.156 c 0
 382.276 705.701 353.095 715 307.406 715 c 0
EndSplineSet
Validated: 1
EndChar

StartChar: p
Encoding: 112 112 77
Width: 593
GlyphClass: 2
Flags: MW
HStem: 699.594 100<189.375 376.688>
LayerCount: 2
Fore
SplineSet
89.4385 799.594 m 1
 89.4062 749.625 l 1
 89 0.03125 l 1
 189 -0.03125 l 1
 189.125 226.813 l 1
 222.116 253.325 280.654 287.832 339.032 326.75 c 0
 407.095 372.126 478.587 425.389 510.844 506.032 c 0
 538.619 575.469 549.083 641.895 528.812 700.344 c 0
 508.543 758.793 447.83 799.594 376.688 799.594 c 2
 139.407 799.594 l 1
 89.4385 799.594 l 1
189.375 699.594 m 1
 376.688 699.594 l 2
 418.255 699.594 426.405 690.395 434.313 667.594 c 0
 442.22 644.793 440.194 598.719 417.969 543.156 c 0
 400.226 498.799 346.718 452.062 283.532 409.938 c 0
 252.384 389.172 219.865 370.018 189.188 350.25 c 1
 189.375 699.594 l 1
EndSplineSet
Validated: 41
EndChar

StartChar: q
Encoding: 113 113 78
Width: 722
GlyphClass: 2
Flags: MW
HStem: -21.7812 102.656<332 332 333 333> 718.719 102.625<298.75 366.677>
VStem: 54.5879 102.563<495.719 499.688> 508.307 102.562<495.719 499.688>
LayerCount: 2
Fore
SplineSet
332.713 821.344 m 0
 239.074 821.344 161.979 783.214 115.025 721.656 c 0
 68.3047 660.404 50.5088 580.627 54.5566 496.969 c 0
 54.5771 496.551 54.5674 496.137 54.5879 495.719 c 2
 54.6191 495.719 l 1
 56.4268 432.392 69.3008 314.825 105.994 205.344 c 0
 124.451 150.274 148.69 97.249 184.307 54.5312 c 0
 219.924 11.8135 271.223 -21.1953 332.244 -21.7812 c 2
 332.713 -21.7812 l 1
 333.213 -21.7812 l 2
 388.811 -21.248 436.327 6.19141 471.275 43.375 c 1
 506.338 -2.0625 l 1
 632.65 -2.0625 l 1
 529.713 131.313 l 1
 541.223 155.015 550.957 179.963 559.463 205.344 c 0
 596.156 314.825 609.03 432.392 610.838 495.719 c 1
 610.869 495.719 l 2
 610.891 496.137 610.88 496.551 610.9 496.969 c 0
 614.948 580.627 597.151 660.404 550.432 721.656 c 0
 503.479 783.214 426.353 821.344 332.713 821.344 c 0
332.713 718.719 m 0
 400.641 718.719 440.825 696.133 468.838 659.406 c 0
 496.852 622.68 511.742 567.099 508.369 500.938 c 2
 508.338 500.312 l 1
 508.307 499.688 l 1
 506.935 448.285 494.064 333.157 462.151 237.938 c 0
 460.668 233.512 459.124 229.144 457.557 224.813 c 1
 425.557 266.281 l 1
 375.901 166.969 l 1
 407.213 126.375 l 1
 405.598 124.262 403.974 122.212 402.338 120.25 c 0
 379.595 92.9717 359.177 81.2754 332.745 80.875 c 0
 306.297 81.2666 285.873 92.9609 263.12 120.25 c 0
 240.229 147.705 219.264 190.328 203.307 237.938 c 0
 171.395 333.157 158.524 448.285 157.151 499.688 c 1
 157.12 500.312 l 1
 157.088 500.938 l 2
 153.716 567.099 168.606 622.68 196.62 659.406 c 0
 224.633 696.133 264.786 718.719 332.713 718.719 c 0
EndSplineSet
Validated: 41
EndChar

StartChar: r
Encoding: 114 114 79
Width: 550
GlyphClass: 2
Flags: MW
HStem: 699.562 100<189.375 376.688>
LayerCount: 2
Fore
SplineSet
89.4375 799.562 m 1
 89.4062 749.594 l 1
 89 0 l 1
 189 -0.0634766 l 1
 189.125 226.781 l 1
 203.261 238.141 222.1 250.987 243.594 265 c 1
 413.938 -0.03125 l 1
 550.188 -0.03125 l 1
 339.844 327.25 l 1
 407.665 372.509 478.714 425.675 510.844 506 c 0
 538.619 575.438 549.083 641.895 528.812 700.344 c 0
 508.543 758.793 447.83 799.562 376.688 799.562 c 2
 139.406 799.562 l 1
 89.4375 799.562 l 1
189.375 699.562 m 1
 376.688 699.562 l 2
 418.256 699.562 426.438 690.364 434.344 667.562 c 0
 442.251 644.761 440.226 598.719 418 543.156 c 0
 400.257 498.799 346.75 452.062 283.562 409.938 c 0
 252.415 389.172 219.865 369.987 189.188 350.219 c 1
 189.375 699.562 l 1
EndSplineSet
Validated: 41
EndChar

StartChar: s
Encoding: 115 115 80
Width: 665
GlyphClass: 2
Flags: MW
HStem: -47.3438 97.3438<251.138 355.789 251.138 366.736> 752.656 97.3438<283.271 314.157>
VStem: 92.7812 97.3125<658.289 684.761 658.289 701.507> 519.781 97.3125<220.779 279.104>
LayerCount: 2
Fore
SplineSet
291.438 850 m 0
 336.876 850 413.102 848.361 494.438 791.125 c 1
 438.438 711.531 l 1
 377.668 754.295 336.876 752.656 291.438 752.656 c 0
 275.104 752.656 244.406 744.835 223.406 730.156 c 0
 202.406 715.479 190.094 699.21 190.094 670.312 c 0
 190.094 646.266 196.263 631.396 213.781 613.438 c 0
 231.3 595.479 262.567 576.35 308.719 558.812 c 0
 376.93 532.893 450.245 504.886 510.594 458.156 c 0
 570.942 411.427 617.094 340.215 617.094 247.312 c 0
 617.094 175.378 596.238 101.829 546.125 45.1875 c 0
 496.012 -11.4541 417.034 -47.3438 316.438 -47.3438 c 0
 149.232 -47.3438 53 51.9688 53 51.9688 c 1
 123.875 118.688 l 1
 123.875 118.688 185.838 50 316.438 50 c 0
 395.14 50 442.156 74.5791 473.219 109.688 c 0
 504.281 144.796 519.781 194.247 519.781 247.312 c 0
 519.781 310.896 495.254 346.951 451 381.219 c 0
 406.746 415.486 341.535 442.239 274.156 467.844 c 0
 220.308 488.307 176.575 512.199 144.094 545.5 c 0
 111.612 578.801 92.7812 623.403 92.7812 670.312 c 0
 92.7812 732.701 127.599 781.938 167.656 809.938 c 0
 207.714 837.938 252.001 850 291.438 850 c 0
EndSplineSet
Validated: 33
EndChar

StartChar: t
Encoding: 116 116 81
Width: 552
GlyphClass: 2
Flags: W
LayerCount: 2
Fore
SplineSet
528.5 801.154 m 1
 26 800.092 l 1
 26.2197 699.404 l 1
 228.688 699.844 l 1
 229.22 0 l 1
 327.407 0.0947266 l 1
 326.845 700.033 l 1
 528.72 700.473 l 1
 528.5 801.154 l 1
EndSplineSet
Validated: 9
EndChar

StartChar: u
Encoding: 117 117 82
Width: 573
GlyphClass: 2
Flags: MW
HStem: -0.53125 100<289 289>
VStem: 87.0254 99.5312 383.932 100<289.406 799.594>
LayerCount: 2
Fore
SplineSet
84.8066 801.719 m 1
 84.8066 801.719 82.7109 486.309 85.2754 293.031 c 0
 85.8926 246.513 83.7002 212.657 87.0254 178.344 c 0
 90.3496 144.03 102.047 108.615 126.057 76.9375 c 0
 165.709 24.6201 228.404 -0.364258 289.4 -0.53125 c 0
 344.512 -0.685547 399.794 21.7432 436.057 67.875 c 0
 493.428 140.862 483.783 236.014 483.932 289.125 c 0
 484.568 518.586 483.932 799.812 483.932 799.812 c 1
 383.932 799.594 l 1
 383.932 799.594 384.567 518.455 383.932 289.406 c 0
 383.773 232.406 380.058 158.401 357.462 129.656 c 0
 345.105 113.936 313.243 99.4033 289.682 99.4688 c 0
 259.73 99.5508 221.059 117.179 205.775 137.344 c 0
 191.719 155.89 188.723 165.649 186.557 188 c 0
 184.391 210.351 185.903 244.632 185.243 294.344 c 0
 182.709 485.448 184.807 801.031 184.807 801.031 c 1
 84.8066 801.719 l 1
EndSplineSet
Validated: 41
EndChar

StartChar: v
Encoding: 118 118 83
Width: 506
GlyphClass: 2
Flags: W
LayerCount: 2
Fore
SplineSet
29 800 m 1
 160.25 0 l 1
 345.094 0 l 1
 478.156 800 l 1
 376.781 800 l 1
 260.375 100 l 1
 245.188 100 l 1
 130.344 800 l 1
 29 800 l 1
EndSplineSet
Validated: 9
EndChar

StartChar: w
Encoding: 119 119 84
Width: 859
GlyphClass: 2
Flags: W
LayerCount: 2
Fore
SplineSet
41 800.5 m 1
 172.25 0.5 l 1
 357.094 0.5 l 1
 428.969 432.688 l 1
 499.969 0 l 1
 684.812 0 l 1
 817.878 800 l 1
 716.5 800 l 1
 600.094 100 l 1
 584.907 99.8154 l 1
 473.188 750.003 l 1
 382.688 750.003 l 1
 272.376 100.503 l 1
 257.188 100.503 l 1
 142.344 800.503 l 1
 41 800.5 l 1
EndSplineSet
Validated: 9
EndChar

StartChar: x
Encoding: 120 120 85
Width: 732
GlyphClass: 2
Flags: MW
HStem: -26.165 99.9062<695.904 700.373> 729.771 100.22 781.71 20G<523.654 639.123 639.123 639.123> 781.71 20G<523.654 639.123 639.123 639.123>
LayerCount: 2
Fore
SplineSet
31.7178 829.992 m 0xc0
 32.9229 830.005 34.1465 830.001 35.4053 829.991 c 0xc0
 58.1973 829.881 88.2578 827.748 120.811 817.835 c 0
 172.897 801.975 231.419 765.14 283.061 694.054 c 0
 315.177 649.847 340.025 596.402 364.593 526.241 c 1
 523.654 801.71 l 1
 639.123 801.71 l 1xa0
 405.28 396.647 l 1
 405.798 394.863 406.29 393.166 406.811 391.366 c 0
 452.592 233.147 489.908 176.746 536.717 132.085 c 0
 594.456 76.9951 664.928 72.3535 695.904 73.7412 c 1
 700.373 -26.165 l 1
 652.758 -28.2979 552.247 -20.9404 467.686 59.7412 c 0
 419.056 106.141 377.487 167.994 337.656 279.554 c 1
 177.25 1.70996 l 1
 61.7812 1.70996 l 1
 297.156 409.397 l 1
 263.095 521.366 234.775 590.403 202.156 635.304 c 0
 161.392 691.414 124.05 712.324 91.6855 722.179 c 0
 68.4062 729.268 47.748 730.059 28 729.771 c 1
 28.1553 829.929 l 1
 29.3232 829.943 30.5117 829.979 31.7178 829.992 c 0xc0
EndSplineSet
Validated: 33
EndChar

StartChar: y
Encoding: 121 121 86
Width: 666
GlyphClass: 2
Flags: MW
HStem: 702.336 100.062<29 29>
LayerCount: 2
Fore
SplineSet
51.1885 802.992 m 2
 56.1885 802.992 l 2
 78.9785 802.882 109.04 800.748 141.594 790.836 c 0
 193.68 774.975 252.202 738.14 303.844 667.055 c 0
 329.526 631.703 350.568 590.451 370.532 539.461 c 1
 522.25 802.242 l 1
 637.719 802.242 l 1
 175.844 2.24219 l 1
 60.375 2.24219 l 1
 304.532 425.148 l 1
 276.213 512.418 251.185 569.391 222.938 608.273 c 0
 182.175 664.384 144.833 685.324 112.469 695.18 c 0
 81.3203 704.664 54.8447 702.938 29 702.336 c 1
 29 802.398 l 1
 34.9658 802.604 42.4072 802.925 51.1885 802.992 c 2
EndSplineSet
Validated: 33
EndChar

StartChar: z
Encoding: 122 122 87
Width: 535
GlyphClass: 2
Flags: MW
HStem: 387.448 100.03<436.219 436.219> 448.263 100.719
LayerCount: 2
Fore
SplineSet
428.875 795.95 m 1x80
 428.625 795.48 l 1
 61.7822 795.48 l 1
 61.7822 695.48 l 1
 373.532 695.48 l 1
 287.844 540.011 l 1
 269.906 545.693 252.034 548.371 234.562 548.886 c 0
 232.597 548.946 230.644 548.976 228.688 548.981 c 0
 212.474 549.031 196.649 547.284 181.469 544.513 c 1
 181.469 442.138 l 1
 201.421 447.158 220.685 449.41 237.312 448.263 c 1x40
 42.9072 95.4814 l 1
 42.7822 95.4814 l 1
 42.7822 95.2314 l 1
 42 93.8252 l 1
 42.7822 93.3857 l 1
 42.7822 -4.52148 l 1
 492.782 -4.52148 l 1
 492.782 95.4785 l 1
 163.532 95.4785 l 1
 333.812 404.51 l 1
 359.217 394.472 392.418 387.42 436.219 387.448 c 1
 436.219 487.479 l 1
 410.654 487.334 394.594 489.514 382.562 492.979 c 1
 492.782 693.01 l 1
 492.782 760.729 l 1
 492.782 795.479 l 1
 429.719 795.479 l 1
 428.875 795.95 l 1x80
EndSplineSet
Validated: 41
EndChar

StartChar: braceleft
Encoding: 123 123 88
Width: 446
GlyphClass: 2
Flags: MW
VStem: 173 100<216.666 239.494 560.506 583.333>
LayerCount: 2
Fore
SplineSet
323 800 m 1
 290.361 800 260.849 784.903 240.938 765.594 c 0
 221.025 746.285 208.276 723.406 198.719 700.469 c 0
 179.604 654.594 173 608.333 173 575 c 0
 173 546.012 162.473 508.205 148 482.062 c 0
 138.206 464.372 127.045 455.945 123 452.344 c 1
 123 450 l 1
 123 350 l 1
 123 347.656 l 1
 127.045 344.054 138.206 335.627 148 317.938 c 0
 162.473 291.794 173 253.988 173 224.999 c 0
 173 191.667 179.604 145.406 198.719 99.5312 c 0
 208.276 76.5938 221.025 53.7148 240.938 34.4062 c 0
 260.849 15.0967 290.361 -0.000976562 323 -0.000976562 c 1
 323 99.999 l 1
 318.138 99.999 316.4 100.527 310.531 106.218 c 0
 304.662 111.91 297.099 123.406 291.031 137.969 c 0
 278.896 167.094 273 208.333 273 224.999 c 0
 273 275.069 258.526 324.782 235.5 366.375 c 0
 229.148 377.849 222.077 389.35 213.969 400 c 1
 222.077 410.649 229.148 422.151 235.5 433.625 c 0
 258.526 475.217 273 524.93 273 575 c 0
 273 591.667 278.896 632.906 291.031 662.031 c 0
 297.099 676.594 304.662 688.09 310.531 693.781 c 0
 316.4 699.472 318.138 700 323 700 c 1
 323 800 l 1
EndSplineSet
Validated: 9
EndChar

StartChar: braceright
Encoding: 125 125 89
Width: 446
GlyphClass: 2
Flags: MW
HStem: -0.000976562 21G<123 139.319> -0.000976562 21G<123 139.319> 780 20G<123 139.319> 780 20G<123 139.319>
VStem: 173 100<216.666 239.494 208.333 250.034 560.506 583.333>
LayerCount: 2
Fore
SplineSet
123 800 m 1xa8
 155.638 800 185.149 784.903 205.062 765.594 c 0
 224.974 746.285 237.723 723.406 247.281 700.469 c 0
 266.395 654.594 273 608.333 273 575 c 0
 273 546.012 283.526 508.205 298 482.062 c 0
 307.793 464.372 318.955 455.945 323 452.344 c 1
 323 450 l 1
 323 350 l 1
 323 347.656 l 1
 318.955 344.054 307.793 335.627 298 317.938 c 0
 283.526 291.794 273 253.988 273 224.999 c 0
 273 191.667 266.395 145.406 247.281 99.5312 c 0
 237.723 76.5938 224.974 53.7148 205.062 34.4062 c 0
 185.149 15.0967 155.638 -0.000976562 123 -0.000976562 c 1
 123 99.999 l 1
 127.86 99.999 129.599 100.527 135.468 106.218 c 0
 141.337 111.91 148.901 123.406 154.968 137.969 c 0
 167.104 167.094 173 208.333 173 224.999 c 0
 173 275.069 187.472 324.782 210.5 366.375 c 0
 216.852 377.849 223.922 389.35 232.031 400 c 1
 223.922 410.649 216.852 422.151 210.5 433.625 c 0
 187.472 475.217 173 524.93 173 575 c 0
 173 591.667 167.104 632.906 154.968 662.031 c 0
 148.901 676.594 141.337 688.09 135.468 693.781 c 0
 129.599 699.472 127.86 700 123 700 c 1
 123 800 l 1xa8
EndSplineSet
Validated: 1
EndChar

StartChar: sterling
Encoding: 163 163 90
Width: 823
GlyphClass: 2
Flags: MW
HStem: -1.53125 80.624 193.562 82.3447 409.125 100.031<526.849 526.849> 463.812 102.375<272.1 272.1> 701.781 98.2188<584.443 603.131>
VStem: 295.226 99.873
LayerCount: 2
Fore
SplineSet
584.443 800 m 1xdc
 603.131 701.781 l 1
 572.67 695.986 505.135 675.174 461.662 608.25 c 0
 448.506 587.997 437 566.444 427.349 538.843 c 1
 437.458 532.583 445.513 526.845 452.816 523.031 c 0
 467.842 515.188 484.142 508.91 526.849 509.156 c 1
 526.849 409.125 l 1xec
 471.9 409.09 433.609 420.223 406.506 434.375 c 0
 405.792 434.747 405.136 435.101 404.441 435.469 c 1
 400.345 404.724 397.191 368.808 395.099 326 c 0
 390.021 222.185 383.329 143.791 368.475 79.0928 c 1
 428.258 78.625 472.779 82.1084 508.349 90.4375 c 0
 572.773 105.524 604.652 128.43 623.662 149.375 c 0
 642.671 170.319 648.87 189.476 657.441 210.031 c 1
 736.941 176.875 l 1
 731.012 162.654 718.797 125.98 687.475 91.4688 c 0
 656.15 56.957 605.788 24.7773 528.006 6.5625 c 0
 454.124 -10.7393 365.771 -9.96875 230.912 -1.53125 c 1
 230.882 -2.03125 l 1
 191.79 0.388672 157.979 7.01953 128.943 22.75 c 0
 99.9082 38.4785 77.1074 65.5146 67.2256 97.4375 c 0
 53.9922 140.177 67.6006 181.991 88.9434 209.438 c 0
 110.288 236.883 137.226 254.035 164.413 262.469 c 0
 182.496 268.077 209.645 275.945 243.413 275.906 c 0
 258.311 275.889 274.491 274.303 291.757 270.343 c 1
 293.031 289.321 294.177 309.469 295.226 330.906 c 0
 297.855 384.705 302.504 430.388 308.976 469.906 c 1
 297.303 469.116 284.842 467.018 272.1 463.812 c 1
 272.1 566.188 l 1
 287.28 568.958 303.104 570.696 319.317 570.656 c 0
 321.273 570.656 323.228 570.622 325.192 570.562 c 0
 327.863 570.483 330.539 570.369 333.226 570.188 c 1
 345.572 606.433 360.521 636.092 377.817 662.719 c 0
 441.487 760.732 537.621 791.091 584.443 800 c 1xdc
239.788 193.562 m 0
 221.154 193.298 206.279 188.172 189.1 182.843 c 0
 180.777 180.262 163.89 169.994 154.757 158.25 c 0
 145.623 146.505 142.116 137.386 146.85 122.093 c 0
 150.933 108.908 155.743 103.044 168.632 96.0625 c 0
 180.688 89.5312 201.085 83.9131 229.913 81.5928 c 1
 230.132 84.8125 l 1
 242.608 84.0176 254.491 83.3242 266.1 82.6875 c 1
 273.714 111.015 279.604 144.865 284.317 186.062 c 1
 266.549 191.701 252.313 193.74 239.788 193.562 c 0
EndSplineSet
Validated: 33
EndChar

StartChar: copyright
Encoding: 169 169 91
Width: 928
GlyphClass: 2
Flags: MW
HStem: 17.5938 100<429.337 498.916 429.337 505.999> 222.344 90<468.794 491.577 468.794 498.831> 495.625 90<468.794 490.822> 687 100<429.337 498.916>
VStem: 136 100<339.428 465.197 339.428 472.966> 325.875 90<379.853 428.147 379.853 434.85> 692.156 100<338.807 465.818>
LayerCount: 2
Fore
SplineSet
464.062 787 m 0
 547.935 787 633.139 768.545 695.938 706.156 c 0
 758.735 643.768 792.156 544.726 792.156 402.312 c 0
 792.156 259.899 758.735 160.826 695.938 98.4375 c 0
 633.139 36.0488 547.935 17.5938 464.062 17.5938 c 0
 379.935 17.5938 294.741 36.834 232.093 99.4375 c 0
 169.447 162.041 136 261.006 136 402.312 c 0
 136 543.619 169.447 642.552 232.093 705.156 c 0
 294.74 767.76 379.935 787 464.062 787 c 0
464.062 687 m 0
 394.611 687 340.78 672.411 302.781 634.438 c 0
 264.782 596.464 236 528.081 236 402.312 c 0
 236 276.544 264.782 208.13 302.781 170.156 c 0
 340.78 132.183 394.611 117.594 464.062 117.594 c 0
 533.77 117.594 587.621 131.774 625.469 169.375 c 0
 663.315 206.976 692.156 275.302 692.156 402.312 c 0
 692.156 529.323 663.315 597.617 625.469 635.219 c 0
 587.621 672.82 533.77 687 464.062 687 c 0
480.656 585.625 m 0
 514.247 585.625 551.858 577.974 581.5 553 c 1
 522.125 485.375 l 1
 513.35 492.285 500.988 495.625 480.656 495.625 c 0
 456.933 495.625 444.112 491.261 435.281 482.188 c 0
 426.45 473.114 415.875 452.294 415.875 404 c 0
 415.875 355.706 426.45 334.886 435.281 325.812 c 0
 444.112 316.739 456.933 312.344 480.656 312.344 c 0
 502.497 312.344 515.152 316.22 524.031 324.219 c 1
 588.625 261.5 l 1
 558.053 231.321 517.005 222.344 480.656 222.344 c 0
 443.749 222.344 401.682 231.283 370.781 263.031 c 0
 339.88 294.779 325.875 342.301 325.875 404 c 0
 325.875 465.699 339.88 513.19 370.781 544.938 c 0
 401.682 576.685 443.749 585.625 480.656 585.625 c 0
EndSplineSet
Validated: 1
EndChar

StartChar: uni00AD
Encoding: 173 173 92
Width: 1400
GlyphClass: 2
Flags: MW
HStem: 333.757 100
LayerCount: 2
Fore
SplineSet
488.099 433.757 m 1
 911.9 433.757 l 1
 911.9 333.757 l 1
 488.099 333.757 l 1
 488.099 433.757 l 1
EndSplineSet
Validated: 1
EndChar

StartChar: acute
Encoding: 180 180 93
Width: 385
GlyphClass: 2
Flags: MW
HStem: 849.101 125<200.656 200.656 200.656 279.063 279.063 279.063>
LayerCount: 2
Fore
SplineSet
200.656 974.101 m 1
 178 849.101 l 1
 279.063 849.101 l 1
 286.717 890.768 294.376 932.434 302.031 974.101 c 1
 200.656 974.101 l 1
EndSplineSet
Validated: 1
EndChar

StartChar: Agrave
Encoding: 192 192 94
Width: 467
GlyphClass: 2
Flags: W
LayerCount: 2
Fore
SplineSet
152.062 800.656 m 1
 7 0.03125 l 1
 106.657 0.03125 l 1
 115.844 50.0312 l 1
 350.844 50.0312 l 1
 358.562 0.03125 l 1
 459.782 0.03125 l 1
 336.562 800 l 1
 152.062 800.656 l 1
235.157 699.469 m 1
 250.594 699.219 l 1
 278.856 516.155 307.139 333.094 335.407 150.031 c 1
 134.219 150.031 l 1
 167.864 333.177 201.507 516.323 235.157 699.469 c 1
197.156 1006.56 m 1
 203.588 964.896 210.002 923.229 216.438 881.562 c 1
 317.688 881.562 l 1
 298.375 1006.56 l 1
 197.156 1006.56 l 1
EndSplineSet
Validated: 9
EndChar

StartChar: Aacute
Encoding: 193 193 95
Width: 467
GlyphClass: 2
Flags: W
LayerCount: 2
Fore
SplineSet
152.062 800.656 m 1
 7 0.03125 l 1
 106.657 0.03125 l 1
 115.844 50.0312 l 1
 350.844 50.0312 l 1
 358.562 0.03125 l 1
 459.782 0.03125 l 1
 336.562 800 l 1
 152.062 800.656 l 1
235.157 699.469 m 1
 250.594 699.219 l 1
 278.856 516.155 307.139 333.094 335.407 150.031 c 1
 134.219 150.031 l 1
 167.864 333.177 201.507 516.323 235.157 699.469 c 1
194.188 1006.56 m 1
 171.532 881.562 l 1
 272.594 881.562 l 1
 280.248 923.229 287.908 964.896 295.562 1006.56 c 1
 194.188 1006.56 l 1
EndSplineSet
Validated: 9
EndChar

StartChar: Egrave
Encoding: 200 200 96
Width: 608
GlyphClass: 2
Flags: MW
HStem: 389.406 100.031<439.938 439.938> 446.562 104.375
LayerCount: 2
Fore
SplineSet
96 800 m 1x40
 96 700 l 1
 96 100 l 1
 96 0 l 1
 196 0 l 1
 519.781 0 l 1
 519.781 100 l 1
 196 100 l 1
 196 446.562 l 1x40
 221.706 451.8 245.601 452.113 263.375 446 c 0
 279.893 440.319 291.349 429.404 319.594 414.656 c 0
 346.699 400.504 384.991 389.371 439.938 389.406 c 1
 439.938 489.438 l 1x80
 397.23 489.191 380.93 495.468 365.906 503.312 c 0
 350.273 511.475 331.242 528.398 295.875 540.562 c 0
 276.484 547.232 257.156 550.287 238.281 550.844 c 0
 236.315 550.902 234.362 550.933 232.406 550.938 c 0
 219.994 550.971 207.841 549.97 196 548.25 c 1
 196 700 l 1
 546 700 l 1
 546 800 l 1
 196 800 l 1
 96 800 l 1x40
266.094 1006.56 m 1
 272.525 964.896 278.939 923.229 285.375 881.562 c 1
 386.625 881.562 l 1
 367.312 1006.56 l 1
 266.094 1006.56 l 1
EndSplineSet
Validated: 41
EndChar

StartChar: Eacute
Encoding: 201 201 97
Width: 608
GlyphClass: 2
Flags: MW
HStem: 389.406 100.031<252.469 252.469> 446.562 104.375
LayerCount: 2
Fore
SplineSet
118.656 1006.56 m 1x00
 96 881.562 l 1
 197.062 881.562 l 1
 204.717 923.229 212.376 964.896 220.031 1006.56 c 1
 118.656 1006.56 l 1x00
-91.4688 800 m 1x40
 -91.4688 700 l 1
 -91.4688 100 l 1
 -91.4688 0 l 1
 8.53125 0 l 1
 332.312 0 l 1
 332.312 100 l 1
 8.53125 100 l 1
 8.53125 446.562 l 1x40
 34.2373 451.8 58.1318 452.113 75.9062 446 c 0
 92.4238 440.319 103.88 429.404 132.125 414.656 c 0
 159.23 400.504 197.522 389.371 252.469 389.406 c 1
 252.469 489.438 l 1x80
 209.762 489.191 193.461 495.468 178.438 503.312 c 0
 162.805 511.475 143.773 528.398 108.406 540.562 c 0
 89.0156 547.232 69.6875 550.287 50.8125 550.844 c 0
 48.8467 550.902 46.8936 550.933 44.9375 550.938 c 0
 32.5254 550.971 20.3721 549.97 8.53125 548.25 c 1
 8.53125 700 l 1
 358.531 700 l 1
 358.531 800 l 1
 8.53125 800 l 1
 -91.4688 800 l 1x40
EndSplineSet
Validated: 41
EndChar

StartChar: Igrave
Encoding: 204 204 98
Width: 226
GlyphClass: 2
Flags: W
LayerCount: 2
Fore
SplineSet
145.984 800 m 1
 47.8281 799.906 l 1
 48.4844 -0.09375 l 1
 146.64 0 l 1
 145.984 800 l 1
28 1006.56 m 1
 34.4307 964.896 40.8447 923.229 47.2812 881.562 c 1
 148.531 881.562 l 1
 129.218 1006.56 l 1
 28 1006.56 l 1
EndSplineSet
Validated: 9
EndChar

StartChar: Iacute
Encoding: 205 205 99
Width: 231
GlyphClass: 2
Flags: W
LayerCount: 2
Fore
SplineSet
176.156 800 m 1
 78 799.906 l 1
 78.6562 -0.09375 l 1
 176.812 0 l 1
 176.156 800 l 1
101.203 1006.56 m 1
 78.5469 881.562 l 1
 179.609 881.562 l 1
 187.263 923.229 194.923 964.896 202.578 1006.56 c 1
 101.203 1006.56 l 1
EndSplineSet
Validated: 9
EndChar

StartChar: Ntilde
Encoding: 209 209 100
Width: 691
GlyphClass: 2
Flags: MW
HStem: 694.468 100.031<594.562 594.562> 749.155 102.375<339.812 339.812> 782.374 20G<96 196 196 196> 782.374 20G<96 196 196 196>
VStem: 96 100<2.37402 598.468 757.968 802.374> 446 100<2.37402 446.624 446.624 446.624 583.312 632.624 2.37402 669.062 2.37402 669.062>
LayerCount: 2
Fore
SplineSet
387.032 855.999 m 0x4c
 388.987 855.994 390.94 855.963 392.906 855.905 c 0
 411.782 855.35 431.109 852.293 450.5 845.624 c 0
 485.867 833.46 504.898 816.537 520.532 808.374 c 0
 535.555 800.53 551.855 794.252 594.562 794.499 c 1
 594.562 694.468 l 1x8c
 539.616 694.434 501.324 705.565 474.219 719.718 c 0
 445.975 734.465 434.518 745.38 418 751.062 c 0
 397.76 758.023 369.554 756.64 339.812 749.155 c 1
 339.812 851.53 l 1
 354.993 854.301 370.818 856.042 387.032 855.999 c 0x4c
96 802.374 m 1x2c
 196 802.374 l 1
 196 757.968 l 1
 238.108 669.837 295.911 644.354 361.406 618.594 c 0
 389.052 607.722 417.874 598.001 446 583.312 c 1
 446 669.062 l 1
 452.673 664.929 460.362 660.331 470.156 655.219 c 0
 489.259 645.244 513.888 636.747 546 632.624 c 1
 546 2.37402 l 1
 446 2.37402 l 1
 446 446.624 l 1
 440.076 466.736 431.122 475.673 412.875 487.188 c 0
 393.103 499.662 361.795 510.986 324.812 525.53 c 0
 285.282 541.078 238.951 562.473 196 598.468 c 1
 196 2.37402 l 1
 96 2.37402 l 1
 96 802.374 l 1x2c
EndSplineSet
Validated: 33
EndChar

StartChar: Ograve
Encoding: 210 210 101
Width: 667
GlyphClass: 2
Flags: MW
HStem: -21.5625 102.656<179 179 180 180> 718.938 102.625<145.942 213.87>
VStem: -98.2188 102.53 355.499 102.532
LayerCount: 2
Fore
SplineSet
55 1006.56 m 1
 61.4307 964.896 67.8447 923.229 74.2812 881.562 c 1
 175.531 881.562 l 1
 156.218 1006.56 l 1
 55 1006.56 l 1
179.906 821.562 m 0
 86.2666 821.562 9.17188 783.433 -37.7822 721.875 c 0
 -84.5078 660.615 -102.305 580.826 -98.251 497.156 c 1
 -98.2822 497.156 l 2
 -98.2725 496.788 -98.2295 496.309 -98.2188 495.938 c 0
 -96.4141 432.618 -83.5107 315.059 -46.8135 205.562 c 0
 -28.3564 150.492 -4.14941 97.4678 31.4678 54.75 c 0
 67.085 12.0322 118.384 -20.9766 179.406 -21.5625 c 2
 179.906 -21.5625 l 1
 180.406 -21.5625 l 2
 241.427 -20.9766 292.726 12.0322 328.343 54.75 c 0
 363.96 97.4678 388.168 150.492 406.624 205.562 c 0
 443.323 315.059 456.226 432.618 458.031 495.938 c 0
 458.041 496.309 458.083 496.788 458.093 497.156 c 2
 458.062 497.156 l 1
 462.116 580.826 444.35 660.615 397.624 721.875 c 0
 350.671 783.433 273.545 821.562 179.906 821.562 c 0
179.906 718.938 m 0
 247.833 718.938 287.986 696.351 315.999 659.625 c 0
 344.013 622.899 358.934 567.318 355.562 501.156 c 1
 355.499 500.531 l 1
 355.499 499.906 l 1
 354.126 448.503 341.225 333.376 309.312 238.156 c 0
 293.354 190.546 272.422 147.923 249.531 120.469 c 0
 226.786 93.1904 206.339 81.4941 179.906 81.0938 c 0
 153.473 81.4941 133.056 93.1904 110.312 120.469 c 0
 87.4209 147.923 66.4561 190.546 50.499 238.156 c 0
 18.5859 333.376 5.68457 448.503 4.31152 499.906 c 1
 4.31152 500.531 l 1
 4.28125 501.156 l 2
 0.908203 567.318 15.7988 622.899 43.8115 659.625 c 0
 71.8252 696.351 111.978 718.938 179.906 718.938 c 0
EndSplineSet
Validated: 41
EndChar

StartChar: Oacute
Encoding: 211 211 102
Width: 667
GlyphClass: 2
Flags: MW
HStem: -21.5625 102.656<35 35 36 36> 718.938 102.625<1.56689 69.4946>
VStem: -242.594 102.53 211.124 102.532
LayerCount: 2
Fore
SplineSet
77.6562 1006.56 m 1
 55 881.562 l 1
 156.062 881.562 l 1
 163.717 923.229 171.376 964.896 179.031 1006.56 c 1
 77.6562 1006.56 l 1
35.5312 821.562 m 0
 -58.1084 821.562 -135.203 783.433 -182.157 721.875 c 0
 -228.883 660.615 -246.68 580.826 -242.626 497.156 c 1
 -242.657 497.156 l 2
 -242.647 496.788 -242.604 496.309 -242.594 495.938 c 0
 -240.789 432.618 -227.886 315.059 -191.188 205.562 c 0
 -172.731 150.492 -148.524 97.4678 -112.907 54.75 c 0
 -77.29 12.0322 -25.9912 -20.9766 35.0312 -21.5625 c 2
 35.5312 -21.5625 l 1
 36.0312 -21.5625 l 2
 97.0518 -20.9766 148.351 12.0322 183.968 54.75 c 0
 219.585 97.4678 243.793 150.492 262.249 205.562 c 0
 298.948 315.059 311.851 432.618 313.656 495.938 c 0
 313.666 496.309 313.708 496.788 313.718 497.156 c 2
 313.687 497.156 l 1
 317.741 580.826 299.975 660.615 253.249 721.875 c 0
 206.296 783.433 129.17 821.562 35.5312 821.562 c 0
35.5312 718.938 m 0
 103.458 718.938 143.611 696.351 171.624 659.625 c 0
 199.638 622.899 214.559 567.318 211.187 501.156 c 1
 211.124 500.531 l 1
 211.124 499.906 l 1
 209.751 448.503 196.85 333.376 164.937 238.156 c 0
 148.979 190.546 128.047 147.923 105.156 120.469 c 0
 82.4111 93.1904 61.9639 81.4941 35.5312 81.0938 c 0
 9.09766 81.4941 -11.3193 93.1904 -34.0635 120.469 c 0
 -56.9541 147.923 -77.9189 190.546 -93.876 238.156 c 0
 -125.789 333.376 -138.69 448.503 -140.063 499.906 c 1
 -140.063 500.531 l 1
 -140.094 501.156 l 2
 -143.467 567.318 -128.576 622.899 -100.563 659.625 c 0
 -72.5498 696.351 -32.3975 718.938 35.5312 718.938 c 0
EndSplineSet
Validated: 41
EndChar

StartChar: Ugrave
Encoding: 217 217 103
Width: 570
GlyphClass: 2
Flags: MW
HStem: -0.53125 100<174 174> 881.562 125
VStem: -27.8748 99.5312 269.031 100
LayerCount: 2
Fore
SplineSet
96.5654 1006.56 m 1
 102.997 964.896 109.411 923.229 115.847 881.562 c 1
 217.097 881.562 l 1
 197.784 1006.56 l 1
 96.5654 1006.56 l 1
-30.0938 801.719 m 1
 -30.0938 801.719 -32.1895 486.309 -29.625 293.031 c 0
 -29.0078 246.513 -31.2002 212.657 -27.875 178.344 c 0
 -24.5508 144.03 -12.8535 108.615 11.1562 76.9375 c 0
 50.8086 24.6201 113.504 -0.364258 174.5 -0.53125 c 0
 229.611 -0.685547 284.894 21.7432 321.156 67.875 c 0
 378.527 140.862 368.883 236.014 369.031 289.125 c 0
 369.668 518.586 369.031 799.812 369.031 799.812 c 1
 269.031 799.594 l 1
 269.031 799.594 269.667 518.455 269.031 289.406 c 0
 268.873 232.406 265.157 158.401 242.562 129.656 c 0
 230.205 113.936 198.343 99.4033 174.781 99.4688 c 0
 144.83 99.5508 106.158 117.179 90.875 137.344 c 0
 76.8184 155.89 73.8223 165.649 71.6562 188 c 0
 69.4902 210.351 71.0029 244.632 70.3428 294.344 c 0
 67.8086 485.448 69.9062 801.031 69.9062 801.031 c 1
 -30.0938 801.719 l 1
EndSplineSet
Validated: 41
EndChar

StartChar: Uacute
Encoding: 218 218 104
Width: 570
GlyphClass: 2
Flags: MW
HStem: -0.53125 100<290 290> 881.562 125
VStem: -52.2498 99.5312 244.656 100
LayerCount: 2
Fore
SplineSet
256.221 1006.56 m 1
 233.564 881.562 l 1
 334.628 881.562 l 1
 342.281 923.229 349.94 964.896 357.596 1006.56 c 1
 256.221 1006.56 l 1
85.5312 801.719 m 1
 85.5312 801.719 83.4355 486.309 86 293.031 c 0
 86.6172 246.513 84.4248 212.657 87.75 178.344 c 0
 91.0742 144.03 102.771 108.615 126.781 76.9375 c 0
 166.434 24.6201 229.129 -0.364258 290.125 -0.53125 c 0
 345.236 -0.685547 400.519 21.7432 436.781 67.875 c 0
 494.152 140.862 484.508 236.014 484.656 289.125 c 0
 485.293 518.586 484.656 799.812 484.656 799.812 c 1
 384.656 799.594 l 1
 384.656 799.594 385.292 518.455 384.656 289.406 c 0
 384.498 232.406 380.782 158.401 358.187 129.656 c 0
 345.83 113.936 313.968 99.4033 290.406 99.4688 c 0
 260.455 99.5508 221.783 117.179 206.5 137.344 c 0
 192.443 155.89 189.447 165.649 187.281 188 c 0
 185.115 210.351 186.628 244.632 185.968 294.344 c 0
 183.434 485.448 185.531 801.031 185.531 801.031 c 1
 85.5312 801.719 l 1
EndSplineSet
Validated: 41
EndChar

StartChar: agrave
Encoding: 224 224 105
Width: 467
Flags: W
LayerCount: 2
Fore
SplineSet
152.062 800.656 m 1
 7 0.03125 l 1
 106.657 0.03125 l 1
 115.844 50.0312 l 1
 350.844 50.0312 l 1
 358.562 0.03125 l 1
 459.782 0.03125 l 1
 336.562 800 l 1
 152.062 800.656 l 1
235.157 699.469 m 1
 250.594 699.219 l 1
 278.856 516.155 307.139 333.094 335.407 150.031 c 1
 134.219 150.031 l 1
 167.864 333.177 201.507 516.323 235.157 699.469 c 1
197.156 1006.56 m 1
 203.588 964.896 210.002 923.229 216.438 881.562 c 1
 317.688 881.562 l 1
 298.375 1006.56 l 1
 197.156 1006.56 l 1
EndSplineSet
Validated: 9
EndChar

StartChar: aacute
Encoding: 225 225 106
Width: 467
Flags: W
LayerCount: 2
Fore
SplineSet
152.062 800.656 m 1
 7 0.03125 l 1
 106.657 0.03125 l 1
 115.844 50.0312 l 1
 350.844 50.0312 l 1
 358.562 0.03125 l 1
 459.782 0.03125 l 1
 336.562 800 l 1
 152.062 800.656 l 1
235.157 699.469 m 1
 250.594 699.219 l 1
 278.856 516.155 307.139 333.094 335.407 150.031 c 1
 134.219 150.031 l 1
 167.864 333.177 201.507 516.323 235.157 699.469 c 1
194.188 1006.56 m 1
 171.532 881.562 l 1
 272.594 881.562 l 1
 280.248 923.229 287.908 964.896 295.562 1006.56 c 1
 194.188 1006.56 l 1
EndSplineSet
Validated: 9
EndChar

StartChar: igrave
Encoding: 236 236 109
Width: 226
Flags: W
LayerCount: 2
Fore
SplineSet
145.984 800 m 1
 47.8281 799.906 l 1
 48.4844 -0.09375 l 1
 146.64 0 l 1
 145.984 800 l 1
28 1006.56 m 1
 34.4307 964.896 40.8447 923.229 47.2812 881.562 c 1
 148.531 881.562 l 1
 129.218 1006.56 l 1
 28 1006.56 l 1
EndSplineSet
Validated: 9
EndChar

StartChar: iacute
Encoding: 237 237 110
Width: 231
Flags: W
LayerCount: 2
Fore
SplineSet
176.156 800 m 1
 78 799.906 l 1
 78.6562 -0.09375 l 1
 176.812 0 l 1
 176.156 800 l 1
101.203 1006.56 m 1
 78.5469 881.562 l 1
 179.609 881.562 l 1
 187.263 923.229 194.923 964.896 202.578 1006.56 c 1
 101.203 1006.56 l 1
EndSplineSet
Validated: 9
EndChar

StartChar: ntilde
Encoding: 241 241 111
Width: 691
Flags: W
HStem: 694.468 100.031<594.562 594.562> 749.155 102.375<339.812 339.812> 782.374 20G<96 196 196 196> 782.374 20G<96 196 196 196>
VStem: 96 100<2.37402 598.468 757.968 802.374> 446 100<2.37402 446.624 446.624 446.624 583.312 632.624 2.37402 669.062 2.37402 669.062>
LayerCount: 2
Fore
SplineSet
387.032 855.999 m 0x4c
 388.987 855.994 390.94 855.963 392.906 855.905 c 0
 411.782 855.35 431.109 852.293 450.5 845.624 c 0
 485.867 833.46 504.898 816.537 520.532 808.374 c 0
 535.555 800.53 551.855 794.252 594.562 794.499 c 1
 594.562 694.468 l 1x8c
 539.616 694.434 501.324 705.565 474.219 719.718 c 0
 445.975 734.465 434.518 745.38 418 751.062 c 0
 397.76 758.023 369.554 756.64 339.812 749.155 c 1
 339.812 851.53 l 1
 354.993 854.301 370.818 856.042 387.032 855.999 c 0x4c
96 802.374 m 1x2c
 196 802.374 l 1
 196 757.968 l 1
 238.108 669.837 295.911 644.354 361.406 618.594 c 0
 389.052 607.722 417.874 598.001 446 583.312 c 1
 446 669.062 l 1
 452.673 664.929 460.362 660.331 470.156 655.219 c 0
 489.259 645.244 513.888 636.747 546 632.624 c 1
 546 2.37402 l 1
 446 2.37402 l 1
 446 446.624 l 1
 440.076 466.736 431.122 475.673 412.875 487.188 c 0
 393.103 499.662 361.795 510.986 324.812 525.53 c 0
 285.282 541.078 238.951 562.473 196 598.468 c 1
 196 2.37402 l 1
 96 2.37402 l 1
 96 802.374 l 1x2c
EndSplineSet
Validated: 33
EndChar

StartChar: ugrave
Encoding: 249 249 114
Width: 570
Flags: W
HStem: -0.53125 100<174 174> 881.562 125
VStem: -27.8748 99.5312 269.031 100
LayerCount: 2
Fore
SplineSet
96.5654 1006.56 m 1
 102.997 964.896 109.411 923.229 115.847 881.562 c 1
 217.097 881.562 l 1
 197.784 1006.56 l 1
 96.5654 1006.56 l 1
-30.0938 801.719 m 1
 -30.0938 801.719 -32.1895 486.309 -29.625 293.031 c 0
 -29.0078 246.513 -31.2002 212.657 -27.875 178.344 c 0
 -24.5508 144.03 -12.8535 108.615 11.1562 76.9375 c 0
 50.8086 24.6201 113.504 -0.364258 174.5 -0.53125 c 0
 229.611 -0.685547 284.894 21.7432 321.156 67.875 c 0
 378.527 140.862 368.883 236.014 369.031 289.125 c 0
 369.668 518.586 369.031 799.812 369.031 799.812 c 1
 269.031 799.594 l 1
 269.031 799.594 269.667 518.455 269.031 289.406 c 0
 268.873 232.406 265.157 158.401 242.562 129.656 c 0
 230.205 113.936 198.343 99.4033 174.781 99.4688 c 0
 144.83 99.5508 106.158 117.179 90.875 137.344 c 0
 76.8184 155.89 73.8223 165.649 71.6562 188 c 0
 69.4902 210.351 71.0029 244.632 70.3428 294.344 c 0
 67.8086 485.448 69.9062 801.031 69.9062 801.031 c 1
 -30.0938 801.719 l 1
EndSplineSet
Validated: 41
EndChar

StartChar: uacute
Encoding: 250 250 115
Width: 570
Flags: W
HStem: -0.53125 100<290 290> 881.562 125
VStem: -52.2498 99.5312 244.656 100
LayerCount: 2
Fore
SplineSet
256.221 1006.56 m 1
 233.564 881.562 l 1
 334.628 881.562 l 1
 342.281 923.229 349.94 964.896 357.596 1006.56 c 1
 256.221 1006.56 l 1
85.5312 801.719 m 1
 85.5312 801.719 83.4355 486.309 86 293.031 c 0
 86.6172 246.513 84.4248 212.657 87.75 178.344 c 0
 91.0742 144.03 102.771 108.615 126.781 76.9375 c 0
 166.434 24.6201 229.129 -0.364258 290.125 -0.53125 c 0
 345.236 -0.685547 400.519 21.7432 436.781 67.875 c 0
 494.152 140.862 484.508 236.014 484.656 289.125 c 0
 485.293 518.586 484.656 799.812 484.656 799.812 c 1
 384.656 799.594 l 1
 384.656 799.594 385.292 518.455 384.656 289.406 c 0
 384.498 232.406 380.782 158.401 358.187 129.656 c 0
 345.83 113.936 313.968 99.4033 290.406 99.4688 c 0
 260.455 99.5508 221.783 117.179 206.5 137.344 c 0
 192.443 155.89 189.447 165.649 187.281 188 c 0
 185.115 210.351 186.628 244.632 185.968 294.344 c 0
 183.434 485.448 185.531 801.031 185.531 801.031 c 1
 85.5312 801.719 l 1
EndSplineSet
Validated: 41
EndChar

StartChar: Ucircumflex
Encoding: 219 219 120
Width: 570
VWidth: 0
HStem: -0.53125 100<290 290>
VStem: 88.0254 99.5312 148.307 39<881.562 920.317> 384.932 100<289.406 799.594> 387.588 35.719<881.562 927.227>
LayerCount: 2
Fore
SplineSet
149.307 981.562 m 1xa8
 148.307 881.562 l 1
 187.307 881.562 l 1
 196.338 931.562 l 1
 380.024 930.906 l 1
 387.588 881.562 l 1
 423.307 881.562 l 1
 423.307 979.562 l 1
 149.307 981.562 l 1xa8
EndSplineSet
Refer: 52 85 N 1 0 0 1 0 0 3
Validated: 9
EndChar

StartChar: dieresis
Encoding: 168 168 121
Width: 675
Flags: W
HStem: 885 107.486<197.904 292.095 382.904 477.095>
VStem: 186.229 117.542<897.272 980.214> 371.229 117.542<897.272 980.214>
LayerCount: 2
Fore
SplineSet
488.771 938.743 m 0
 488.771 909.062 462.459 885 430 885 c 0
 397.54 885 371.229 909.062 371.229 938.743 c 0
 371.229 968.424 397.54 992.486 430 992.486 c 0
 462.459 992.486 488.771 968.424 488.771 938.743 c 0
303.771 938.743 m 0
 303.771 909.062 277.459 885 245 885 c 0
 212.54 885 186.229 909.062 186.229 938.743 c 0
 186.229 968.424 212.54 992.486 245 992.486 c 0
 277.459 992.486 303.771 968.424 303.771 938.743 c 0
EndSplineSet
Validated: 1
EndChar

StartChar: Adieresis
Encoding: 196 196 123
Width: 467
VWidth: 0
HStem: 881.562 107.487<102.467 196.658 287.467 381.658>
VStem: 90.791 117.543<893.835 976.776> 275.791 117.543<893.835 976.776>
LayerCount: 2
Fore
SplineSet
393.334 935.306 m 0
 393.334 905.625 367.021 881.562 334.562 881.562 c 0
 302.104 881.562 275.791 905.625 275.791 935.306 c 0
 275.791 964.986 302.104 989.049 334.562 989.049 c 0
 367.021 989.049 393.334 964.986 393.334 935.306 c 0
208.334 935.306 m 0
 208.334 905.625 182.021 881.562 149.562 881.562 c 0
 117.104 881.562 90.791 905.625 90.791 935.306 c 0
 90.791 964.986 117.104 989.049 149.562 989.049 c 0
 182.021 989.049 208.334 964.986 208.334 935.306 c 0
EndSplineSet
Refer: 32 65 N 1 0 0 1 0 0 3
Validated: 9
EndChar

StartChar: Udieresis
Encoding: 220 220 126
Width: 570
VWidth: 0
HStem: -0.53125 100<290 290> 881.562 107.487<145.211 239.402 330.211 424.402>
VStem: 88.0254 99.5312 133.535 117.543<893.835 976.776> 318.535 117.543<893.835 976.776> 384.932 100<289.406 799.594>
LayerCount: 2
Fore
SplineSet
436.078 935.306 m 0xc8
 436.078 905.625 409.766 881.562 377.307 881.562 c 0
 344.848 881.562 318.535 905.625 318.535 935.306 c 0
 318.535 964.986 344.848 989.049 377.307 989.049 c 0
 409.766 989.049 436.078 964.986 436.078 935.306 c 0xc8
251.078 935.306 m 0xd0
 251.078 905.625 224.766 881.562 192.307 881.562 c 0
 159.848 881.562 133.535 905.625 133.535 935.306 c 0
 133.535 964.986 159.848 989.049 192.307 989.049 c 0
 224.766 989.049 251.078 964.986 251.078 935.306 c 0xd0
EndSplineSet
Refer: 52 85 N 1 0 0 1 0 0 3
Validated: 9
EndChar

StartChar: Eth
Encoding: 208 208 127
Width: 641
Flags: W
HStem: 1.09375 98.3124<430.125 477.668> 702.062 98.313<269.125 341.749>
LayerCount: 2
Fore
SplineSet
18 433.757 m 1
 18 333.757 l 1
 291.802 333.757 l 1
 291.802 433.757 l 1
 18 433.757 l 1
269.125 800.375 m 0
 242.868 800.081 219.973 799.812 196 799.531 c 1
 196 800 l 1
 96 800 l 1
 96 0 l 1
 196 0 l 1
 196 1.09375 l 1
 273.428 1.17969 378.564 1.52637 432.375 2.75 c 0
 488.131 4.01855 534.492 27.3125 559.188 63.5312 c 0
 583.883 99.75 586.766 142.155 578.688 178.688 c 0
 567.982 227.1 560.197 290.209 517.625 465.312 c 0
 474.742 641.699 447.068 712.964 409.812 754.344 c 1
 410.116 754.007 392.896 774.463 369.156 784.938 c 0
 345.415 795.412 314.597 800.885 269.125 800.375 c 0
270.219 702.062 m 0
 306.886 702.474 323.917 697.449 329.469 695 c 0
 335.02 692.551 328.51 697.649 336.719 688.531 c 0
 344.948 679.391 380.43 613.303 422.062 442.062 c 0
 464.007 269.54 470.389 213.058 482.688 157.438 c 0
 486.112 141.953 483.635 127.293 477.938 118.938 c 0
 472.24 110.582 463.148 101.783 430.125 101.031 c 0
 378.748 99.8623 273.595 99.501 196 99.4062 c 1
 196 701.188 l 1
 220.251 701.479 243.568 701.764 270.219 702.062 c 0
EndSplineSet
Validated: 37
EndChar

StartChar: bar
Encoding: 124 124 128
Width: 291
Flags: W
VStem: 96.6562 97.4998
LayerCount: 2
Fore
SplineSet
194.156 870 m 1
 96 869.906 l 1
 96.6562 -80.0938 l 1
 194.812 -80 l 1
 194.156 870 l 1
EndSplineSet
Validated: 9
EndChar

StartChar: asciitilde
Encoding: 126 126 129
Width: 1000
VWidth: 0
HStem: 638.468 100.031<258.217 344.75> 693.155 102.375<90 136.458>
VStem: 90 254.75<695.062 738.499>
LayerCount: 2
Fore
SplineSet
137.218 799.999 m 1x60
 139.174 799.994 141.127 799.964 143.093 799.905 c 0
 161.968 799.35 181.296 796.294 200.687 789.624 c 0
 236.054 777.46 255.085 760.537 270.718 752.374 c 0
 285.742 744.53 302.042 738.253 344.75 738.499 c 1
 344.75 638.468 l 1xa0
 289.803 638.434 251.511 649.565 224.406 663.718 c 0
 196.162 678.465 184.705 689.381 168.187 695.062 c 0
 147.947 702.023 119.741 700.64 90 693.155 c 1
 90 795.53 l 1
 105.18 798.302 121.004 800.042 137.218 799.999 c 1x60
EndSplineSet
Validated: 33
EndChar

StartChar: AE
Encoding: 198 198 137
Width: 1000
VWidth: 0
HStem: -2.03125 100<539.562 718.938> 49.376 100<229.219 430.406> 443.376 100.031<630.123 716.656> 501.407 103.5<477.25 575.861> 697.969 100<327.001 348.243 446.906 744.093>
LayerCount: 2
Fore
SplineSet
247.062 800 m 1x48
 294.093 799.305 341.125 798.646 388.156 797.969 c 2
 744.093 797.969 l 1
 744.093 697.969 l 1
 446.906 697.969 l 1
 461.969 600.438 l 1
 477.13 603.203 492.932 604.947 509.125 604.907 c 0x58
 511.08 604.907 513.034 604.873 515 604.813 c 0
 533.875 604.257 553.202 601.201 572.593 594.532 c 0
 607.959 582.368 626.991 565.445 642.625 557.282 c 0
 657.648 549.438 673.948 543.16 716.656 543.407 c 1
 716.656 443.376 l 1x28
 661.71 443.342 623.417 454.474 596.312 468.626 c 0
 568.068 483.374 556.61 494.288 540.093 499.969 c 0
 523.374 505.719 501.216 505.78 477.25 501.407 c 1
 539.562 97.9688 l 1
 718.938 97.9688 l 1
 718.938 -2.03125 l 1
 506.687 -2.03125 l 1x98
 506.687 -0.624023 l 1
 453.562 -0.624023 l 1
 445.843 49.376 l 1
 210.843 49.376 l 1
 201.656 -0.624023 l 1
 100 -0.624023 l 1
 247.062 800 l 1x48
330.156 698.812 m 1
 296.507 515.669 262.864 332.52 229.219 149.376 c 1
 430.406 149.376 l 1
 402.139 332.438 373.856 515.501 345.593 698.562 c 1
 330.156 698.812 l 1
EndSplineSet
Validated: 33
EndChar

StartChar: equal
Encoding: 61 61 138
Width: 520
Flags: W
HStem: 213.757 100<48 471.802> 453.757 100<48 471.802>
LayerCount: 2
Fore
SplineSet
48 553.757 m 1
 471.802 553.757 l 1
 471.802 453.757 l 1
 48 453.757 l 1
 48 553.757 l 1
48 313.757 m 1
 471.802 313.757 l 1
 471.802 213.757 l 1
 48 213.757 l 1
 48 313.757 l 1
EndSplineSet
Validated: 1
EndChar

StartChar: germandbls
Encoding: 223 223 139
Width: 1000
VWidth: 0
HStem: 40.5654 99.9996<144.938 367.592> 699.565 99.872<100.375 345.861>
VStem: 0 100<-98.125 699.565> 388.375 99.969<163.167 251.357>
LayerCount: 2
Fore
SplineSet
287.125 800 m 0
 320.478 800.003 350.631 795.114 377.375 782.034 c 0
 404.119 768.955 426.487 746.114 438.031 718.973 c 0
 461.12 664.687 448.544 604.597 421.281 536.44 c 0
 402.067 488.406 381.85 452.364 360.469 422.565 c 1
 434.719 328.473 l 2
 467.031 287.521 487.925 244.82 488.344 199.034 c 0
 488.762 153.248 463.958 109.162 425.406 80.5654 c 0
 377.589 45.0967 324.619 38.9717 281.875 39.3467 c 2
 144.062 40.5654 l 1
 144.938 140.565 l 1
 282.75 139.347 l 2
 317.057 139.046 340.399 142.028 365.812 160.879 c 0
 385.301 175.334 388.504 184.044 388.375 198.097 c 0
 388.247 212.151 380.038 236.309 356.188 266.535 c 2
 293.125 346.474 l 1
 274.602 328.476 255.318 310.791 235.188 290.66 c 1
 164.5 361.379 l 1
 242.8 439.679 281.685 456.794 328.406 573.597 c 0
 351.144 630.44 351.089 667.851 346 679.815 c 0
 343.456 685.799 341.518 688.271 333.438 692.223 c 0
 325.357 696.174 310.127 700.004 287.125 700.004 c 0
 218.378 700.004 142.637 699.716 100.375 699.565 c 1
 100 -98.1846 l 1
 0 -98.125 l 1
 0.40625 749.469 l 1
 0.4375 799.25 l 1
 50.2188 799.437 l 1
 50.2188 799.437 199.617 800 287.125 800 c 0
EndSplineSet
Validated: 33
EndChar

StartChar: ae
Encoding: 230 230 143
Width: 1000
VWidth: 0
Flags: W
HStem: -2.03125 100<539.562 718.938> 49.376 100<229.219 430.406> 443.376 100.031<630.123 716.656> 501.407 103.5<477.25 575.861> 697.969 100<327.001 348.243 446.906 744.093>
LayerCount: 2
Fore
SplineSet
247.062 800 m 1x48
 294.093 799.305 341.125 798.646 388.156 797.969 c 2
 744.093 797.969 l 1
 744.093 697.969 l 1
 446.906 697.969 l 1
 461.969 600.438 l 1
 477.13 603.203 492.932 604.947 509.125 604.907 c 0x58
 511.08 604.907 513.034 604.873 515 604.813 c 0
 533.875 604.257 553.202 601.201 572.593 594.532 c 0
 607.959 582.368 626.991 565.445 642.625 557.282 c 0
 657.648 549.438 673.948 543.16 716.656 543.407 c 1
 716.656 443.376 l 1x28
 661.71 443.342 623.417 454.474 596.312 468.626 c 0
 568.068 483.374 556.61 494.288 540.093 499.969 c 0
 523.374 505.719 501.216 505.78 477.25 501.407 c 1
 539.562 97.9688 l 1
 718.938 97.9688 l 1
 718.938 -2.03125 l 1
 506.687 -2.03125 l 1x98
 506.687 -0.624023 l 1
 453.562 -0.624023 l 1
 445.843 49.376 l 1
 210.843 49.376 l 1
 201.656 -0.624023 l 1
 100 -0.624023 l 1
 247.062 800 l 1x48
330.156 698.812 m 1
 296.507 515.669 262.864 332.52 229.219 149.376 c 1
 430.406 149.376 l 1
 402.139 332.438 373.856 515.501 345.593 698.562 c 1
 330.156 698.812 l 1
EndSplineSet
Validated: 33
EndChar

StartChar: bracketleft
Encoding: 91 91 144
Width: 1000
VWidth: 0
HStem: -1.53125 99.6562<101.875 231.906> 700.344 99.656<101.875 232.312>
VStem: 0 231.906<-1.53125 98.125 700.344 800> 0 101.875<-1.71875 -1.53125 98.125 700.344>
LayerCount: 2
Fore
SplineSet
0 800 m 1xe0
 5.375 800 l 1
 101.875 800 l 1
 232.312 800 l 1
 232.312 700.344 l 1
 101.875 700.344 l 1
 101.875 98.125 l 1xd0
 231.906 98.125 l 1
 231.906 -1.53125 l 1xe0
 101.875 -1.53125 l 1
 101.875 -1.71875 l 1
 0 -1.71875 l 1xd0
 0 800 l 1xe0
EndSplineSet
Validated: 1
EndChar

StartChar: bracketright
Encoding: 93 93 145
Width: 1000
VWidth: 0
HStem: -1.53125 99.6562<0.4375 130.469> 700.344 99.656<0 130.469>
VStem: 0.4375 231.874<-1.53125 98.125 700.344 800> 130.469 101.843<-1.71875 -1.53125 98.125 700.344>
LayerCount: 2
Fore
SplineSet
0 800 m 1xd0
 130.469 800 l 1xd0
 226.969 800 l 1
 232.312 800 l 1xe0
 232.312 -1.71875 l 1
 130.469 -1.71875 l 1
 130.469 -1.53125 l 1xd0
 0.4375 -1.53125 l 1
 0.4375 98.125 l 1xe0
 130.469 98.125 l 1
 130.469 700.344 l 1
 0 700.344 l 1
 0 800 l 1xd0
EndSplineSet
Validated: 1
EndChar

StartChar: plusminus
Encoding: 177 177 146
Width: 632
Flags: W
HStem: 123.757 100<104 527.802>
LayerCount: 2
Fore
SplineSet
104 223.757 m 1
 527.802 223.757 l 1
 527.802 123.757 l 1
 104 123.757 l 1
 104 223.757 l 1
265.906 705.656 m 1
 265.906 543.75 l 1
 104 543.75 l 1
 104 443.75 l 1
 265.906 443.75 l 1
 265.906 281.844 l 1
 365.906 281.844 l 1
 365.906 443.75 l 1
 527.812 443.75 l 1
 527.812 543.75 l 1
 365.906 543.75 l 1
 365.906 705.656 l 1
 265.906 705.656 l 1
EndSplineSet
Validated: 9
EndChar

StartChar: guillemotleft
Encoding: 171 171 147
Width: 1000
VWidth: 0
LayerCount: 2
Fore
SplineSet
321.625 650 m 1
 320.5 530.25 l 1
 174.5 431.031 l 1
 174.5 380.844 l 1
 321.625 281.625 l 1
 322.781 164.156 l 1
 0 379.719 l 1
 0 435.594 l 1
 321.625 650 l 1
511.562 589.344 m 1
 511.563 469.375 l 1
 440.281 420.937 l 1
 440.281 370.75 l 1
 511.563 322.687 l 1
 511.563 205.469 l 1
 265.781 369.594 l 1
 265.781 425.5 l 1
 511.562 589.344 l 1
EndSplineSet
Validated: 1
EndChar

StartChar: guillemotright
Encoding: 187 187 148
Width: 1000
VWidth: 0
LayerCount: 2
Fore
SplineSet
188.813 650 m 1
 511.562 434.438 l 1
 511.562 378.562 l 1
 189.938 164.125 l 1
 191.094 283.875 l 1
 337.062 383.125 l 1
 337.062 433.281 l 1
 189.938 532.5 l 1
 188.813 650 l 1
0 608.688 m 1
 245.781 444.562 l 1
 245.781 388.656 l 1
 0 224.812 l 1
 0 344.781 l 1
 71.2812 393.219 l 1
 71.2812 443.406 l 1
 0 491.469 l 1
 0 608.688 l 1
EndSplineSet
Validated: 1
EndChar

StartChar: exclamdown
Encoding: 161 161 149
Width: 414
Flags: W
HStem: 724.781 108.469<160.539 253.023>
VStem: 148 117.562<737.45 820.975>
LayerCount: 2
Fore
SplineSet
256.781 0.78125 m 1
 256.781 699.781 l 1
 156.781 699.781 l 1
 156.781 0.78125 l 1
 256.781 0.78125 l 1
206.781 724.781 m 0
 239.24 724.781 265.562 749.818 265.562 779.5 c 0
 265.562 809.182 239.24 833.25 206.781 833.25 c 0
 174.322 833.25 148 809.182 148 779.5 c 0
 148 749.818 174.322 724.781 206.781 724.781 c 0
EndSplineSet
Validated: 9
EndChar

StartChar: ucircumflex
Encoding: 251 251 150
Width: 570
VWidth: 0
Flags: W
HStem: -0.53125 100<290 290>
VStem: 88.0254 99.5312 148.307 39<881.562 920.317> 384.932 100<289.406 799.594> 387.588 35.719<881.562 927.227>
LayerCount: 2
Fore
SplineSet
149.307 981.562 m 1xa8
 148.307 881.562 l 1
 187.307 881.562 l 1
 196.338 931.562 l 1
 380.024 930.906 l 1
 387.588 881.562 l 1
 423.307 881.562 l 1
 423.307 979.562 l 1
 149.307 981.562 l 1xa8
EndSplineSet
Refer: 52 85 N 1 0 0 1 0 0 3
Validated: 9
EndChar

StartChar: udieresis
Encoding: 252 252 151
Width: 570
VWidth: 0
Flags: W
HStem: -0.53125 100<290 290> 881.562 107.487<145.211 239.402 330.211 424.402>
VStem: 88.0254 99.5312 133.535 117.543<893.835 976.776> 318.535 117.543<893.835 976.776> 384.932 100<289.406 799.594>
LayerCount: 2
Fore
SplineSet
436.078 935.306 m 0xc8
 436.078 905.625 409.766 881.562 377.307 881.562 c 0
 344.848 881.562 318.535 905.625 318.535 935.306 c 0
 318.535 964.986 344.848 989.049 377.307 989.049 c 0
 409.766 989.049 436.078 964.986 436.078 935.306 c 0xc8
251.078 935.306 m 0xd0
 251.078 905.625 224.766 881.562 192.307 881.562 c 0
 159.848 881.562 133.535 905.625 133.535 935.306 c 0
 133.535 964.986 159.848 989.049 192.307 989.049 c 0
 224.766 989.049 251.078 964.986 251.078 935.306 c 0xd0
EndSplineSet
Refer: 52 85 N 1 0 0 1 0 0 3
Validated: 9
EndChar

StartChar: cedilla
Encoding: 184 184 154
Width: 1000
VWidth: 0
Flags: W
HStem: 737.938 102.374<-115 -68.5419> 794.968 100.031<53.2166 139.75>
VStem: -115 254.75
LayerCount: 2
Fore
SplineSet
-67.7822 733.468 m 1xa0
 -65.8262 733.473 -63.873 733.503 -61.9072 733.562 c 0
 -43.0322 734.117 -23.7041 737.173 -4.31348 743.843 c 0
 31.0537 756.007 50.085 772.93 65.7178 781.093 c 0
 80.7422 788.938 97.042 795.214 139.75 794.968 c 1
 139.75 894.999 l 1x60
 84.8027 895.033 46.5107 883.902 19.4062 869.749 c 0
 -8.83789 855.002 -20.2949 844.086 -36.8135 838.405 c 0
 -57.0527 831.444 -85.2588 832.827 -115 840.312 c 1
 -115 737.938 l 1
 -99.8203 735.165 -83.9961 733.425 -67.7822 733.468 c 1xa0
EndSplineSet
Validated: 41
EndChar

StartChar: periodcentered
Encoding: 183 183 157
Width: 411
Flags: W
HStem: 286 200<143.273 266.727>
VStem: 105 200<324.273 447.727>
LayerCount: 2
Fore
SplineSet
305 386 m 0
 305 330.8 260.2 286 205 286 c 0
 149.8 286 105 330.8 105 386 c 0
 105 441.2 149.8 486 205 486 c 0
 260.2 486 305 441.2 305 386 c 0
EndSplineSet
Validated: 1
EndChar
